<?xml version="1.0" encoding="iso-8859-1"?>
<!-- Generator: Adobe Illustrator 19.0.0, SVG Export Plug-In . SVG Version: 6.00 Build 0)  -->
<svg version="1.1" id="Capa_1" xmlns="http://www.w3.org/2000/svg" xmlns:xlink="http://www.w3.org/1999/xlink" x="0px" y="0px"
	 viewBox="0 0 512 512" style="enable-background:new 0 0 512 512;" xml:space="preserve">
<circle style="fill:#C2DDF2;" cx="255.802" cy="261.548" r="221.523"/>
<g>
	<path style="fill:#1138F7;" d="M256,512C114.606,512,0,397.394,0,256S114.606,0,256,0c141.315,0,255.881,114.487,256,255.802
		C511.881,397.176,397.375,511.782,256,512z M256,42.402C138.145,42.284,42.521,137.749,42.402,255.604
		c-0.119,117.855,95.346,213.479,213.201,213.598S469.082,373.855,469.201,256c0-0.059,0-0.139,0-0.198
		C469.082,138.066,373.736,42.62,256,42.402z"/>
	<path style="fill:#1138F7;" d="M324.954,243.319c17.12-9.65,26.373-28.968,23.183-48.347c-3.963-29.92-39.629-41.214-67.765-43.591
		v-44.978h-27.74v44.582h-18.625v-44.582h-27.74v44.582H150.39v28.731h20.805c9.313,0,13.87,2.774,13.87,10.303v123.443
		c0,10.303-5.152,13.474-10.7,13.474h-21.201v29.325h53.895v45.573h27.938V356.26h18.625v45.573h27.938V356.26h5.944
		c57.065,0,76.087-27.938,76.087-65.981C363.037,267.611,347.086,248.233,324.954,243.319z M234.006,181.697h19.814
		c13.87,0,41.214,2.378,41.214,24.966c0.951,14.742-9.729,27.661-24.372,29.523h-36.656L234.006,181.697L234.006,181.697z
		 M264.718,324.359h-30.712v-59.443h35.666c8.322,0,39.628,2.774,39.628,24.966C309.3,312.074,294.44,324.359,264.718,324.359z"/>
</g>
<g>
</g>
<g>
</g>
<g>
</g>
<g>
</g>
<g>
</g>
<g>
</g>
<g>
</g>
<g>
</g>
<g>
</g>
<g>
</g>
<g>
</g>
<g>
</g>
<g>
</g>
<g>
</g>
<g>
</g>
</svg>
