<?xml version="1.0"?><svg width="640" height="480" xmlns="http://www.w3.org/2000/svg">
 <g>
  <title>Layer 1</title>
  <g id="layer1">
   <path fill="#ffffff" stroke="#000000" stroke-width="4" stroke-linejoin="round" stroke-miterlimit="4" stroke-dashoffset="0" id="path3422" d="m327.978973,63.837921c-23.390411,0 -43.682587,10.82338 -55.033813,26.807655c-10.531372,-6.386536 -23.297363,-10.248016 -37.163635,-10.247978c-35.68631,0 -64.680542,24.88588 -64.680542,55.515564c0,2.250824 0.48674,4.402222 0.790726,6.583115c-30.819656,4.220795 -54.480331,26.930206 -54.480331,54.56546c0,27.382095 23.20607,50.044739 53.610535,54.56543c-0.616058,3.074463 -1.106995,6.208954 -1.106995,9.433594c0,30.6297 28.994232,55.447693 64.680542,55.447693c17.479248,0 33.272705,-5.992737 44.912659,-15.677399c11.862213,12.110809 29.399048,20.020905 49.261597,20.020905c28.3396,0 52.163544,-15.803925 60.885132,-37.598541c6.980743,2.215637 14.423706,3.664856 22.298157,3.664856c35.686279,0 64.601501,-24.885925 64.601501,-55.515594c0,-15.402344 -7.315857,-29.306412 -19.135315,-39.363129c5.967102,-8.402573 9.646729,-18.154358 9.646729,-28.707947c0,-30.629684 -28.994263,-55.447739 -64.680603,-55.447708c-3.756592,0 -7.409241,0.353607 -10.990936,0.882294c-5.762543,-25.572166 -31.94635,-44.928268 -63.415405,-44.928268z"/>
   <path fill="#ffffff" stroke="#000000" stroke-width="4" stroke-linejoin="round" stroke-miterlimit="4" stroke-dashoffset="0" id="path3424" d="m417.888367,345.089996a24.136902,20.716801 0 1 1-48.273804,0a24.136902,20.716801 0 1 148.273804,0z"/>
   <path fill="#ffffff" stroke="#000000" stroke-width="4" stroke-linejoin="round" stroke-miterlimit="4" stroke-dashoffset="0" id="path3426" d="m442.68689,390.289917a16.753124,14.379274 0 1 1-33.506195,0a16.753124,14.379274 0 1 133.506195,0z"/>
  </g>
 </g>
</svg>