<?xml version="1.0" encoding="UTF-8"?>
<!DOCTYPE svg PUBLIC "-//W3C//DTD SVG 1.1//EN" "http://www.w3.org/Graphics/SVG/1.1/DTD/svg11.dtd">
<svg
    xmlns:dc="http://purl.org/dc/elements/1.1/"
    xmlns:cc="http://creativecommons.org/ns#"
    xmlns:rdf="http://www.w3.org/1999/02/22-rdf-syntax-ns#"
    xmlns:xlink="http://www.w3.org/1999/xlink"
    xmlns="http://www.w3.org/2000/svg"
    id="svg-root"
    version="1.1"
    viewBox="0 0 151.01 151.01"
>
    <defs id="svg-defs">
        <path id="outside-border-template" d="m0 0 150.17-4e-6 3e-5 150.17-150.17-4e-5z" style="fill:#fff;stroke-width:.83713px"/>
        <path id="board-border-template" d="m0 0 124.76 1.8e-5v124.76l-124.76-5e-5z" style="fill:none;stroke-width:.61754px"/>
		<path id="a-template" d="m0 0q-0.85193 0-1.2805-0.44948-0.42858-0.44948-0.42858-1.2335 0-0.87806 0.57492-1.3484 0.58015-0.47039 1.8659-0.50175l1.2701-0.0209v-0.30837q0-0.6899-0.29269-0.98782-0.29269-0.29791-0.91987-0.29791-0.63241 0-0.91987 0.21429t-0.34495 0.68468l-0.98259-0.0888q0.24042-1.5262 2.2683-1.5262 1.0662 0 1.6046 0.4913 0.53834 0.48607 0.53834 1.4112v2.4356q0 0.41812 0.10976 0.63241 0.10976 0.20906 0.41812 0.20906 0.13589 0 0.30837-0.0366v0.58537q-0.35541 0.0836-0.72649 0.0836-0.52266 0-0.76308-0.27178-0.2352-0.27701-0.26655-0.86238h-0.03136q-0.36063 0.64809-0.84147 0.91987-0.47562 0.26655-1.1603 0.26655zm0.21429-0.70558q0.51743 0 0.91987-0.2352 0.40244-0.2352 0.63241-0.64287 0.23519-0.4129 0.23519-0.8467v-0.46516l-1.0296 0.0209q-0.66377 0.0104-1.0087 0.13589-0.33973 0.12544-0.52266 0.38676-0.18293 0.26133-0.18293 0.68468 0 0.45994 0.24565 0.71081 0.25088 0.25088 0.71081 0.25088z"/>
		<path id="b-template" d="m0 0q0 2.9582-2.0802 2.9582-0.64287 0-1.0714-0.22997-0.42335-0.2352-0.6899-0.75262h-0.01045q0 0.16202-0.02091 0.49652-0.02091 0.32927-0.03136 0.38154h-0.90942q0.03136-0.28223 0.03136-1.1655v-6.5907h0.94078v2.2108q0 0.33973-0.02091 0.79966h0.02091q0.26133-0.54356 0.6899-0.77876 0.4338-0.2352 1.0714-0.2352 1.0714 0 1.5732 0.72126 0.50698 0.72126 0.50698 2.1847zm-0.98782 0.0314q0-1.1864-0.31359-1.6986t-1.0192-0.5122q-0.79444 0-1.1603 0.54356-0.36063 0.54356-0.36063 1.7248 0 1.1133 0.35541 1.6464 0.3554 0.52788 1.1551 0.52788 0.71081 0 1.0244-0.52266 0.31882-0.52788 0.31882-1.7091z"/>
		<path id="c-template" d="m0 0q0 1.1289 0.3554 1.6725 0.3554 0.54356 1.0714 0.54356 0.50175 0 0.83625-0.27178 0.33973-0.27178 0.41813-0.83625l0.95123 0.06272q-0.10976 0.81534-0.69513 1.3014-0.58538 0.48607-1.4843 0.48607-1.1864 0-1.8136-0.7474-0.62196-0.75262-0.62196-2.1899 0-1.4268 0.62719-2.1742 0.62719-0.75262 1.7979-0.75262 0.86761 0 1.4373 0.44948 0.57493 0.44948 0.72127 1.2387l-0.96691 0.07317q-0.0732-0.47039-0.37109-0.7474-0.29791-0.27701-0.8467-0.27701-0.7474 0-1.0819 0.49652t-0.3345 1.6725z"/>
        <path id="d-template" d="m0 0q-0.26133 0.54356-0.69513 0.77876-0.42858 0.2352-1.0662 0.2352-1.0714 0-1.5784-0.72126-0.50175-0.72126-0.50175-2.1847 0-2.9582 2.0802-2.9582 0.64287 0 1.0714 0.2352 0.42857 0.2352 0.6899 0.7474h0.0105l-0.0105-0.63241v-2.3467h0.94078v6.5907q0 0.88329 0.0314 1.1655h-0.89897q-0.0157-0.0836-0.0366-0.38676-0.0157-0.30314-0.0157-0.52266zm-2.8537-1.9234q0 1.1864 0.3136 1.6986 0.31359 0.5122 1.0192 0.5122 0.79966 0 1.1603-0.55401 0.36063-0.55402 0.36063-1.7195 0-1.1237-0.36063-1.6464t-1.1498-0.52266q-0.71081 0-1.0296 0.52788-0.3136 0.52266-0.3136 1.7039z" />
		<path id="e-template" d="m0 0q0 0.97214 0.40244 1.5 0.40244 0.52788 1.176 0.52788 0.61151 0 0.97737-0.24565 0.37108-0.24565 0.50175-0.62196l0.82579 0.2352q-0.50697 1.338-2.3049 1.338-1.2544 0-1.9129-0.7474-0.65332-0.7474-0.65332-2.2213 0-1.4007 0.65332-2.1481 0.65854-0.7474 1.8763-0.7474 2.4931 0 2.4931 3.0053v0.12544zm3.0628-0.72126q-0.0784-0.89374-0.45471-1.3014-0.37631-0.4129-1.0819-0.4129-0.68468 0-1.0871 0.45994-0.39722 0.45471-0.42858 1.2544z" />
		<path id="f-template" d="m0 0v4.9704h-0.94078v-4.9704h-0.79443v-0.68468h0.79443v-0.63764q0-0.77353 0.33973-1.1133 0.33972-0.33973 1.0401-0.33973 0.39199 0 0.66377 0.0627v0.71604q-0.23519-0.0418-0.41812-0.0418-0.36063 0-0.52266 0.18293-0.16202 0.18293-0.16202 0.66377v0.50698h1.1028v0.68468z" />
		<path id="g-template" d="m0 0q-0.9251 0-1.4739-0.36586-0.54879-0.36063-0.70558-1.0296l0.946-0.13589q0.0941 0.39199 0.4129 0.60105 0.32405 0.21429 0.8467 0.21429 1.4059 0 1.4059-1.6464v-0.90942h-0.0104q-0.26655 0.54356-0.73172 0.82057-0.46516 0.27178-1.0871 0.27178-1.0401 0-1.5314-0.6899-0.48607-0.6899-0.48607-2.169 0-1.5 0.52266-2.2108 0.52788-0.71604 1.5993-0.71604 0.60106 0 1.0401 0.27701 0.44425 0.27178 0.68467 0.77876h0.0105q0-0.1568 0.0209-0.54356t0.0418-0.42335h0.89374q-0.0314 0.28223-0.0314 1.1707v4.3224q0 2.3833-2.3676 2.3833zm1.4321-5.0488q0-0.6899-0.18815-1.1864-0.18816-0.50175-0.53311-0.76308-0.33973-0.26655-0.77353-0.26655-0.72126 0-1.0505 0.52266-0.32927 0.52266-0.32927 1.6934 0 1.1603 0.30837 1.6673 0.30836 0.50698 1.0558 0.50698 0.44426 0 0.78921-0.26133t0.53311-0.7474q0.18815-0.4913 0.18815-1.1655z" />
		<path id="h-template" d="m0 0q0.30313-0.55401 0.72649-0.81012 0.42857-0.26133 1.0819-0.26133 0.91987 0 1.3537 0.45994 0.43903 0.45471 0.43903 1.5314v3.7683h-0.94601v-3.5854q0-0.59583-0.10975-0.88329-0.10976-0.29269-0.36064-0.42858-0.25087-0.13589-0.69513-0.13589-0.66377 0-1.0662 0.45994-0.39722 0.45994-0.39722 1.2387v3.3345h-0.94078v-7.7562h0.94078v2.0174q0 0.31882-0.0209 0.65855-0.0157 0.33973-0.0209 0.39199z" />
		<path id="8-template" d="m0 0q0 1.0192-0.64809 1.5889t-1.8607 0.5697q-1.1812 0-1.8502-0.55924-0.66377-0.55924-0.66377-1.5889 0-0.72127 0.4129-1.2126 0.4129-0.4913 1.0558-0.59583v-0.0209q-0.60105-0.14111-0.95123-0.6115-0.34495-0.47039-0.34495-1.1028 0-0.84147 0.62719-1.3641 0.63241-0.52265 1.6934-0.52265 1.0871 0 1.7143 0.5122 0.63241 0.5122 0.63241 1.385 0 0.63241-0.35018 1.1028t-0.95646 0.5906v0.0209q0.70558 0.11498 1.0976 0.60105 0.39199 0.48084 0.39199 1.2073zm-1.1603-3.4704q0-1.2491-1.3694-1.2491-0.66377 0-1.014 0.31359-0.34495 0.31359-0.34495 0.93555 0 0.63241 0.35541 0.96691 0.36063 0.32928 1.014 0.32928 0.66377 0 1.0087-0.30314 0.35018-0.30837 0.35018-0.99305zm0.18293 3.3816q0-0.68468-0.40767-1.0296-0.40767-0.35018-1.1446-0.35018-0.71604 0-1.1185 0.37631-0.40244 0.37109-0.40244 1.0244 0 1.5209 1.5523 1.5209 0.7683 0 1.1446-0.36586 0.37631-0.37108 0.37631-1.176z" />
        <g id="black-rook-template">
            <rect id="black-rook-border" width="15.595" height="15.595" style="fill:none;stroke-linecap:round;stroke-linejoin:round;stroke-width:.25219;stroke:#000" />
            <g id="black-rook-piece" style="stroke-width:.023252">
                <path id="black-rook-piece-background" d="m4.02 11.78v-0.43016h0.58129v-0.99308l0.97658-1.0398v-3.4673l-0.56828-0.42946-0.5685-0.42969-2e-3 -1.5695h1.3254v0.69755h1.2091v-0.69755h1.6276v0.69755h1.2091v-0.69755h1.3254l-2e-3 1.5695-1.137 0.86032v3.4736l0.48759 0.51875 0.48759 0.51852 1e-3 0.9882h0.58129v0.86032h-7.5336z" />
                <g id="black-rook-piece-highlights" style="fill:#fff">
                    <path id="bkrph1" d="m10.94 5.085c0.0314-0.03139 0.057-0.08417 0.057-0.11742 0-0.03302-0.0256-0.08603-0.057-0.11742l-0.0572-0.05697h-6.1892l-0.0572 0.05697c-0.0314 0.03139-0.057 0.0844-0.057 0.11742s0.0256 0.08603 0.057 0.11742l0.0572 0.05697h6.1892z" />
                    <path id="bkrph2" d="m9.78 5.968c0.0314-0.03139 0.057-0.08417 0.057-0.11742 0-0.03302-0.0256-0.08603-0.057-0.11742l-0.0572-0.05697h-3.864l-0.0572 0.05697c-0.0314 0.03139-0.057 0.0844-0.057 0.11742s0.0256 0.08603 0.057 0.11742l0.0572 0.05697h3.864z" />
                    <path id="bkrph3" d="m9.78 9.433c0.0314-0.03139 0.057-0.08417 0.057-0.11742 0-0.03302-0.0256-0.08603-0.057-0.11742l-0.0572-0.05697h-3.864l-0.0572 0.05697c-0.0314 0.03139-0.057 0.0844-0.057 0.11742 0 0.03325 0.0256 0.08603 0.057 0.11742l0.0572 0.05697h3.864z" />
                    <path id="bkrph4" d="m10.74 10.506c0.10092-0.07766 0.10696-0.18764 0.0149-0.27321-0.0481-0.04511-0.0979-0.04581-2.9699-0.04581-2.8721 0-2.9218 6.97e-4 -2.97 0.04581-0.0921 0.08557-0.086 0.19555 0.0149 0.27321 0.0537 0.04116 5.8564 0.04116 5.9101 0z" />
                    <path id="bkrph5" d="m10.74 11.483c0.10092-0.07766 0.10696-0.18764 0.0149-0.27321-0.0481-0.04511-0.0979-0.04581-2.9699-0.04581-2.8721 0-2.9218 6.97e-4 -2.97 0.04581-0.0921 0.08557-0.086 0.19555 0.0149 0.27321 0.0537 0.04116 5.8564 0.04116 5.9101 0z" />
                </g>
            </g>
        </g>
		<g id="black-knight-template">
			<rect id="black-knight-border" x=".2521" y="4.6533e-6" width="15.595" height="15.595" style="fill:none;stroke-linecap:round;stroke-linejoin:round;stroke-width:.25219;stroke:#000"/>
			<g id="black-knight-piece" style="stroke-width:.023252">
				<path id="black-knight-piece-background" d="m5.8321 12.577c-0.034-0.31785 0.0314-0.6757 0.17578-0.96169 0.11905-0.236 0.28158-0.42737 0.79009-0.93007 0.30158-0.29832 0.55456-0.57037 0.6271-0.6743 0.23578-0.33831 0.41621-0.75661 0.50364-1.1679 0.0449-0.21089 0.0586-0.78591 0.0246-1.0242l-0.0193-0.13463-0.14347 0.10208c-0.26763 0.1902-0.53758 0.34878-1.0191 0.5992-0.91984 0.47829-1.0768 0.62012-1.4246 1.2868-0.19438 0.37249-0.30576 0.53805-0.44364 0.65965-0.11091 0.0977-0.27321 0.16741-0.38877 0.16741-0.15274 0-0.29681-0.14393-0.297-0.29646l-9e-5 -0.0756h-0.12672c-0.18799 0-0.35431-0.0419-0.52954-0.133-0.47826-0.24903-0.64484-0.78358-0.43725-1.4032 0.0993-0.29646 0.19422-0.46945 0.55439-1.0098 0.37429-0.56176 0.48929-0.76824 0.58927-1.058 0.0748-0.21694 0.0763-0.22856 0.0775-0.63942 2e-3 -0.52386-1e-3 -0.51735 0.41734-0.93007 0.35017-0.34482 0.50131-0.55479 0.50131-0.69546 0-0.0503-0.0214-0.35194-0.0479-0.6704-0.0263-0.31848-0.0446-0.60452-0.0407-0.63568 7e-3 -0.0534 0.0472-0.0327 0.71895 0.37059l0.7115 0.4272 0.42295-0.45027c0.23275-0.24765 0.43109-0.45027 0.44085-0.45027 0.01 0 0.14509 0.2799 0.30065 0.62198 0.15579 0.34208 0.29181 0.62001 0.3025 0.61761 0.15649-0.0353 0.48666-0.0573 0.70221-0.0467 0.8245 0.0405 1.5321 0.35873 2.1275 0.95676 0.54991 0.55223 0.90845 1.1893 1.2575 2.2333 0.48805 1.4609 0.8073 3.3206 0.86218 5.0235l0.0153 0.4755h-7.1885z"/>
				<g id="black-knight-piece-highlights" style="fill:#fff">
					<path id="bknph1" d="m5.1221 6.284c0.14951-0.0739 0.23927-0.13951 0.37203-0.27205 0.16067-0.16044 0.34924-0.43364 0.34924-0.50596 0-0.0779-0.2174-0.0972-0.36063-0.0323-0.12765 0.0581-0.21089 0.15997-0.42504 0.52014-0.26135 0.43969-0.25252 0.42062-0.18695 0.40249 0.0298-8e-3 0.143-0.0588 0.25135-0.11231z"/>
					<path id="bknph2" d="m3.9521 9.012c0.0288-0.0426 0.0523-0.10277 0.0523-0.13346 0-0.13207-0.12955-0.26298-0.26042-0.26274-0.10116 2.3e-4 -0.20463 0.0874-0.26804 0.22601-0.0479 0.10463-0.0626 0.1795-0.0715 0.36366l-0.0112 0.23205 0.25323-0.17392c0.1393-0.0956 0.27682-0.2088 0.30558-0.25158z"/>
					<path id="bknph3" d="m12.832 12.51c0.0584-0.0584 0.0591-0.063 0.0439-0.30809-0.0846-1.3846-0.23252-2.4482-0.51479-3.7017-0.23903-1.0619-0.48317-1.7983-0.80219-2.4182-0.20996-0.4083-0.41876-0.70081-0.70639-0.9889-0.44829-0.44899-0.93146-0.71476-1.5483-0.85127-0.43086-0.0954-1.2435-0.0631-1.3695 0.0544-0.0686 0.0637-0.0565 0.19578 0.023 0.25484 0.0553 0.0412 0.0697 0.0416 0.29064 8e-3 0.87032-0.13114 1.6748 0.12137 2.3168 0.72685 0.62943 0.59362 1.0708 1.5883 1.4472 3.2604 0.27274 1.2112 0.42249 2.2598 0.5034 3.5226 0.0223 0.3504 0.0307 0.40109 0.0744 0.4476 0.0663 0.0707 0.16718 0.0679 0.24182-7e-3z"/>
				</g>
			</g>
		</g>
		<g id="black-bishop-template">
			<rect id="black-bishop-border" x=".25209" y="4.6533e-6" width="15.595" height="15.595" style="fill:none;stroke-linecap:round;stroke-linejoin:round;stroke-width:.25219;stroke:#000"/>
			<g id="black-bishop-piece" style="stroke-width:.023252">
				<path id="black-bishop-piece-background" d="m3.6491 12.376-0.34266-0.34343 0.07606-0.0719c0.22664-0.21438 0.6697-0.46643 1.032-0.58688 0.43432-0.14439 0.49756-0.15114 1.4507-0.15393 0.81846-3e-3 0.88333-6e-3 1.058-0.0533 0.26112-0.0709 0.49828-0.19718 0.67453-0.35854 0.17904-0.16416 0.18997-0.20392 0.0551-0.20392-0.13905 0-0.64896-0.10742-0.8924-0.18788-0.28228-0.0935-0.77893-0.33738-0.77893-0.38272 0-0.0193 0.07324-0.32762 0.16276-0.685s0.16253-0.65802 0.16206-0.66779c-2.33e-4 -0.01-0.07464-0.0651-0.16532-0.12277-0.71918-0.45643-0.98727-1.4374-0.61385-2.2466 0.22461-0.48643 0.55572-0.81149 1.4914-1.4639 0.4555-0.31762 0.85241-0.62291 0.95867-0.73731l0.0542-0.0584-0.0956-0.016c-0.13486-0.0228-0.30134-0.14309-0.38412-0.27744-0.0623-0.10124-0.0704-0.13495-0.0704-0.29246s8e-3 -0.19122 0.0704-0.29246c0.23368-0.37966 0.76475-0.37966 0.99843 0 0.0623 0.10124 0.0705 0.13495 0.0705 0.29246s-8e-3 0.19122-0.0705 0.29246c-0.0828 0.13435-0.24925 0.25465-0.38411 0.27744l-0.0956 0.016 0.0542 0.0584c0.10626 0.1144 0.50317 0.41969 0.95867 0.73731 0.93565 0.65244 1.2668 0.9775 1.4914 1.4639 0.37342 0.80916 0.10533 1.7902-0.61385 2.2466-0.0907 0.0577-0.16509 0.11277-0.16532 0.12277-4.7e-4 0.01 0.0725 0.31041 0.16206 0.66779 0.0895 0.35738 0.16277 0.6657 0.16277 0.685 0 0.0453-0.49666 0.28925-0.77894 0.38272-0.24344 0.0805-0.75336 0.18788-0.8924 0.18788-0.13486 0-0.12393 0.0398 0.0551 0.20392 0.17624 0.16137 0.41341 0.28762 0.67453 0.35854 0.17462 0.0474 0.23949 0.0507 1.058 0.0533 0.74359 2e-3 0.89937 9e-3 1.058 0.0439 0.45318 0.10068 0.91124 0.30344 1.2412 0.54944 0.30158 0.22508 0.30971 0.17044-0.0856 0.56502l-0.34249 0.34203-0.13812-0.10324c-0.35157-0.26321-0.7994-0.4469-1.2447-0.51107-0.13439-0.0193-0.51084-0.0458-0.83706-0.0588-0.32599-0.013-0.68639-0.04-0.80056-0.06-0.29925-0.0521-0.61826-0.16462-0.83334-0.2939-0.10301-0.0619-0.19439-0.11254-0.20299-0.11254-9e-3 0-0.1 0.0507-0.20299 0.11254-0.21508 0.12928-0.53409 0.24182-0.83334 0.2939-0.11417 0.02-0.47434 0.047-0.80056 0.06-0.84706 0.0337-1.1877 0.0932-1.5986 0.27879-0.12319 0.0556-0.40254 0.22926-0.57627 0.35808-0.04495 0.0332-0.06434 0.0179-0.38996-0.30809z"/>
				<g id="black-bishop-piece-highlights" style="fill:#fff">
					<path id="bqbph1" d="m8.2351 6.942v-0.29065h0.55805v-0.34878h-0.55805v-0.58129h-0.34877v0.58129h-0.5813v0.34878h0.5813v0.58129h0.34877z"/>
					<path id="bqbph2" d="m6.9641 8.709c0.11207-0.046 0.30576-0.11091 0.43016-0.14416 0.20485-0.0546 0.26693-0.0604 0.6564-0.0604s0.45155 6e-3 0.6564 0.0604c0.18043 0.0481 0.48852 0.1602 0.65756 0.23903 0.02 9e-3 0.17415-0.23601 0.17415-0.27716 0-0.0239-0.21112-0.1223-0.42132-0.19648-0.38203-0.13486-0.64082-0.17788-1.0668-0.17788s-0.68477 0.043-1.0668 0.17788c-0.2102 0.0742-0.42132 0.17253-0.42132 0.19648 0 0.0412 0.15416 0.28646 0.17416 0.27716 0.01302-6e-3 0.11533-0.0488 0.2274-0.0949z"/>
					<path id="bqbph3" d="m6.5001 10.119c0.41039-0.28158 1.0273-0.46782 1.5504-0.46782 0.52316 0 1.14 0.18625 1.5504 0.46782 0.0535 0.0367 0.10184 0.0667 0.10765 0.0667 0.0119 0 0.20206-0.24833 0.20206-0.26368 0-0.0251-0.31436-0.2102-0.53479-0.31506-0.55618-0.2646-1.163-0.35738-1.7597-0.26879-0.33041 0.0491-0.6006 0.13044-0.89101 0.26879-0.22043 0.10487-0.53479 0.28995-0.53479 0.31506 0 0.0154 0.1902 0.26368 0.20206 0.26368 0.0058 0 0.05418-0.03 0.10766-0.0667z"/>
				</g>
			</g>
		</g>
		<g id="black-queen-template">
			<rect id="black-queen-border" x=".25209" y="4.6533e-6" width="15.595" height="15.595" style="fill:none;stroke-linecap:round;stroke-linejoin:round;stroke-width:.25219;stroke:#000"/>
			<g id="black-queen-piece" style="stroke-width:.023252">
				<path id="black-queen-piece-background" d="m6.4021 12.95c-0.48154-0.034-0.92891-0.12742-1.2879-0.26926-0.21717-0.0858-0.48851-0.22554-0.512-0.26368-7e-3 -0.0121 0.0863-0.25135 0.2081-0.532 0.12208-0.28042 0.22183-0.522 0.22183-0.53688 0-0.0293-0.36854-0.88194-0.44156-1.0214-0.0242-0.0463-0.23184-0.31297-0.46159-0.59269l-0.41772-0.50898-0.0275-0.22345c-0.0152-0.12324-0.12893-1.0347-0.25284-2.0257l-0.22531-1.802-0.13244-0.0165c-0.3824-0.0479-0.61078-0.38784-0.49484-0.73685 0.0493-0.14835 0.12458-0.24017 0.26479-0.3226 0.0917-0.0539 0.13432-0.0635 0.28239-0.0635s0.19069 0.01 0.28239 0.0635c0.14021 0.0824 0.21552 0.17425 0.26479 0.3226 0.0841 0.25321-0.0254 0.53642-0.25776 0.66663-0.0269 0.0149 0.14511 0.38668 0.85294 1.8432 0.48759 1.0033 0.88799 1.8262 0.88985 1.8285 5e-3 6e-3 0.24879-4.3667 0.24763-4.4369-9.3e-4 -0.0523-0.0156-0.0647-0.10115-0.0863-0.13881-0.0349-0.28018-0.14393-0.35761-0.27581-0.0563-0.0957-0.0656-0.13628-0.0656-0.28765 0-0.15548 8e-3 -0.18966 0.0704-0.29065 0.23368-0.37966 0.76475-0.37966 0.99843 0 0.0623 0.10124 0.0705 0.13495 0.0705 0.29248 0 0.15728-8e-3 0.19136-0.0702 0.29246-0.0419 0.0683-0.11743 0.14563-0.18741 0.1918l-0.11719 0.0774 0.73382 2.1257c0.40342 1.1693 0.73894 2.1259 0.74546 2.1257 8e-3 0 0.77033-4.3376 0.82264-4.6806 1e-3 -0.0104-0.0365-0.0327-0.0844-0.0497-0.12835-0.0453-0.24042-0.13965-0.31343-0.26372-0.0551-0.0938-0.0644-0.13518-0.0644-0.28588 0-0.15548 8e-3 -0.18966 0.0705-0.29065 0.23368-0.37966 0.76475-0.37966 0.99843 0 0.0621 0.10098 0.0704 0.13516 0.0704 0.29065 0 0.1507-9e-3 0.19208-0.0644 0.28588-0.073 0.12407-0.18509 0.21845-0.31344 0.26372-0.0479 0.017-0.0858 0.0393-0.0844 0.0496 0.0523 0.34301 0.81474 4.6806 0.82265 4.6806 7e-3 2.3e-4 0.34203-0.95634 0.74545-2.1257l0.73382-2.1257-0.11718-0.0774c-0.07-0.0462-0.14556-0.12351-0.18741-0.1918-0.0621-0.1011-0.0702-0.13519-0.0702-0.29246 0-0.15753 8e-3 -0.19124 0.0704-0.29248 0.23368-0.37965 0.76475-0.37965 0.99843 0 0.0621 0.10098 0.0704 0.13516 0.0704 0.29065 0 0.15137-9e-3 0.19192-0.0656 0.28765-0.0774 0.13188-0.2188 0.24086-0.35761 0.27581-0.0856 0.0216-0.10021 0.034-0.10114 0.0863-1e-3 0.0702 0.24298 4.4434 0.24763 4.4369 2e-3 -2e-3 0.40225-0.8252 0.88984-1.8285 0.70779-1.4565 0.87985-1.8283 0.85288-1.8432-0.23229-0.13021-0.3418-0.41342-0.25763-0.66663 0.0493-0.14835 0.12439-0.24017 0.26483-0.3226 0.0916-0.0539 0.13417-0.0635 0.28228-0.0635 0.14812 0 0.19067 0.01 0.28228 0.0635 0.14021 0.0824 0.21554 0.17425 0.26484 0.3226 0.11602 0.34901-0.11231 0.68895-0.4948 0.73685l-0.1323 0.0165-0.22531 1.802c-0.12394 0.99099-0.23787 1.9025-0.25298 2.0257l-0.0274 0.22345-0.41784 0.50898c-0.22972 0.27972-0.43736 0.54642-0.46154 0.59269-0.073 0.13951-0.44155 0.99215-0.44155 1.0215 0 0.0149 0.0998 0.25647 0.22182 0.53688 0.12184 0.28065 0.21554 0.51991 0.2081 0.532-0.0533 0.0863-0.61245 0.32041-0.97169 0.40714-0.52084 0.12533-0.62501 0.1316-2.3182 0.13742-0.86311 3e-3 -1.6802-2e-3 -1.8155-0.0116z"/>
				<g id="black-queen-piece-highlights" style="fill:#fff">
					<path id="bqph1" d="m5.2321 10.348c0.40225-0.15067 0.80079-0.2646 1.2207-0.34901 0.61315-0.12347 0.87985-0.14811 1.6044-0.14811 0.72452 0 0.99122 0.0247 1.6044 0.14811 0.42202 0.0849 0.81893 0.19857 1.2277 0.3518 0.34785 0.13021 0.40295 0.1323 0.46829 0.016 0.0537-0.0958 0.0128-0.1816-0.11742-0.24624-0.19252-0.0958-0.75475-0.28042-1.1417-0.37528-0.76684-0.18811-1.243-0.24531-2.0413-0.24531-0.36203 0-0.71686 0.0123-0.86032 0.03-0.80079 0.0986-1.5002 0.2674-2.1564 0.52038-0.24368 0.0939-0.30832 0.14556-0.30832 0.24577 0 0.0621 0.0958 0.16834 0.15184 0.16834 0.0209 0 0.17741-0.0525 0.34808-0.11649z"/>
					<path id="bqph2" d="m5.7821 11.352c0.46388-0.19973 0.94426-0.33599 1.4649-0.41574 0.37273-0.0572 1.2526-0.0574 1.6276-4.7e-4 0.54269 0.0823 1.0659 0.2367 1.5906 0.46922 0.2388 0.1058 0.28693 0.11976 0.3439 0.1 0.12811-0.0446 0.15113-0.19019 0.0444-0.27995-0.16091-0.13532-0.94217-0.42597-1.4442-0.53712-0.52596-0.11649-0.76475-0.1416-1.3486-0.1416-0.58386 0-0.82265 0.0251-1.3486 0.1416-0.502 0.11114-1.2833 0.40179-1.4442 0.53712-0.1051 0.0884-0.0879 0.22229 0.0349 0.27391 0.0593 0.0249 0.0842 0.0249 0.14184-6.9e-4 0.0386-0.0172 0.19043-0.083 0.33738-0.14625z"/>
					<path id="bqph3" d="m5.0321 12.548c0.12067-0.0623 0.80939-0.28786 1.0975-0.35947 0.32831-0.0816 0.70453-0.14904 1.0812-0.19369 0.33366-0.0393 1.3637-0.0393 1.6974 0 0.7408 0.0877 1.419 0.25461 2.0627 0.50759l0.20252 0.0798 0.0951-0.0486c0.10626-0.0542 0.12789-0.0895 0.1065-0.17416-0.0188-0.0756-0.1437-0.13765-0.57177-0.2853-1.8183-0.62664-3.6691-0.62664-5.4874 0-0.42807 0.14765-0.55293 0.20973-0.57176 0.2853-0.0209 0.0835 0 0.11951 0.0998 0.17206 0.10719 0.0565 0.10974 0.0567 0.18834 0.0165z"/>
				</g>
			</g>
		</g>
		<g id="black-king-template">
			<rect id="black-king-border" x=".2521" y="4.6533e-6" width="15.595" height="15.595" style="fill:none;stroke-linecap:round;stroke-linejoin:round;stroke-width:.25219;stroke:#000"/>
			<g id="black-king-piece" style="stroke-width:.023252">
				<path id="black-king-piece-background" d="m6.8921 11.902c-0.82916-0.0528-1.5074-0.21029-2.0885-0.48489-0.29274-0.13835-0.27065-0.0651-0.19625-0.65175l0.0519-0.40691-0.0537-0.59292c-0.0351-0.38761-0.0637-0.60106-0.0825-0.61617-0.016-0.0128-0.0905-0.13323-0.16579-0.2674-0.19898-0.35529-0.43422-0.70988-0.72485-1.0928-0.34324-0.45225-0.43976-0.5985-0.54776-0.82893-0.21615-0.46132-0.21048-0.89147 0.0179-1.354 0.0829-0.16811 0.14574-0.2567 0.27372-0.38575 0.56225-0.56781 1.4175-0.62687 2.3428-0.16206 0.65989 0.33134 1.1221 0.71197 1.622 1.3356 0.0349 0.0435 0.0153-0.0388-0.0774-0.32552-0.17764-0.54944-0.20927-0.71662-0.20834-1.1045 7e-4 -0.27739 9e-3 -0.34808 0.0537-0.47666 0.11951-0.34273 0.3418-0.61408 0.60152-0.73499l0.14439-0.0672 4.7e-4 -0.91844h-0.76731v-0.34878h0.76731v-0.51154h0.34877v0.51154h0.74406v0.34878h-0.74406v0.92449l0.1337 0.0653c0.25135 0.12254 0.47294 0.39714 0.58943 0.7308 0.0451 0.12858 0.053 0.19927 0.0537 0.47666 9.3e-4 0.38784-0.0307 0.55502-0.20834 1.1045-0.0928 0.28669-0.11231 0.369-0.0774 0.32552 0.49991-0.62361 0.96216-1.0042 1.622-1.3356 0.92543-0.4648 1.7806-0.40574 2.3428 0.16206 0.12812 0.12905 0.1909 0.21764 0.27368 0.38575 0.22833 0.46248 0.23414 0.89264 0.0179 1.354-0.10789 0.23042-0.20438 0.37668-0.54781 0.82893-0.29042 0.38296-0.52572 0.73755-0.72476 1.0928-0.0753 0.13416-0.14974 0.25461-0.16578 0.2674-0.0188 0.0151-0.0474 0.22856-0.0826 0.61617l-0.0537 0.59292 0.0519 0.40691c0.0742 0.58525 0.093 0.51596-0.17299 0.64105-0.32669 0.15346-0.49015 0.21252-0.83451 0.30134-0.3804 0.0981-0.8352 0.16497-1.3337 0.19604-0.44132 0.0275-1.7527 0.0264-2.1957-2e-3z"/>
				<g id="black-king-piece-highlights" style="fill:#fff">
					<path id="bkph1" d="m8.0421 7.796c0-0.0216 0.15183-0.49108 0.33738-1.0428 0.36575-1.0877 0.42179-1.2958 0.44434-1.6497 0.0286-0.45085-0.0798-0.80149-0.3218-1.0421-0.17044-0.16974-0.26833-0.21275-0.48317-0.21275-0.21485 0-0.31274 0.043-0.48318 0.21275-0.24205 0.24066-0.3504 0.59129-0.3218 1.0421 0.0226 0.35389 0.0786 0.562 0.44434 1.6497 0.18555 0.55176 0.33738 1.0212 0.33738 1.0428s0.0105 0.0395 0.0233 0.0395 0.0233-0.0179 0.0233-0.0395z"/>
					<path id="bkph2" d="m5.1821 9.172c0.50363-0.14346 1.1135-0.25902 1.7397-0.32924 0.5041-0.0565 1.6816-0.0565 2.1857 0 0.62617 0.0702 1.2361 0.18578 1.7397 0.32924 0.15741 0.0451 0.30576 0.0819 0.32947 0.0819 0.0828 0 0.18509-0.12044 0.35204-0.41388 0.2374-0.4176 0.46015-0.75475 0.75545-1.144 0.33389-0.43992 0.44108-0.60013 0.52502-0.78568 0.35413-0.78079-0.0156-1.6639-0.80684-1.9283-0.16648-0.0556-0.21996-0.0621-0.51153-0.0616-0.27577 2.3e-4 -0.35948 0.01-0.54805 0.0602-0.60617 0.163-1.2014 0.52526-1.7299 1.0531-0.30762 0.30692-0.52991 0.60292-0.70778 0.94216-0.12835 0.24484-0.23531 0.61943-0.33181 1.1607l-0.0539 0.30344h-0.20927l-0.0539-0.30344c-0.0965-0.5413-0.20345-0.91589-0.3318-1.1607-0.17788-0.33924-0.40017-0.63524-0.70779-0.94216-0.52851-0.52782-1.1238-0.89008-1.7299-1.0531-0.18857-0.0507-0.27228-0.06-0.54804-0.0602-0.29149-4.7e-4 -0.34497 6e-3 -0.51154 0.0616-0.79138 0.26437-1.1609 1.1475-0.80689 1.9283 0.0841 0.18555 0.19118 0.34575 0.52498 0.78568 0.29546 0.38923 0.51805 0.72638 0.75555 1.144 0.16694 0.29344 0.26925 0.41388 0.35203 0.41388 0.0237 0 0.17206-0.0367 0.32948-0.0819z"/>
					<path id="bkph3" d="m5.2521 10.442c0.5413-0.19927 1.1754-0.35226 1.8039-0.4355 0.22554-0.03 0.47038-0.04 0.96495-0.04 0.49456 0 0.7394 0.01 0.96494 0.04 0.63176 0.0837 1.2623 0.23624 1.8116 0.4383 0.28158 0.1037 0.34482 0.10277 0.40598-6e-3 0.046-0.0821 0.0177-0.17602-0.0691-0.2288-0.10743-0.0651-0.75359-0.27391-1.1231-0.3625-0.7329-0.17602-1.2124-0.23182-1.9904-0.23182-0.9231 0-1.6613 0.10998-2.5061 0.37319-0.5785 0.1802-0.70267 0.24693-0.70267 0.37668 0 0.0626 0.096 0.16811 0.153 0.16811 0.0214 0 0.15044-0.0412 0.28693-0.0914z"/>
					<path id="bkph4" d="m5.0921 11.373c0.64314-0.29111 1.5444-0.51619 2.3296-0.58222 1.1682-0.0979 2.4112 0.10417 3.491 0.56804l0.19531 0.0839 0.11812-0.0598c0.25577-0.12951 0.10998-0.25112-0.61431-0.5127-0.77894-0.28111-1.7616-0.45271-2.5926-0.45271-0.83102 0-1.8136 0.1716-2.5926 0.45271-0.71801 0.25926-0.86798 0.38226-0.62198 0.51014 0.0607 0.0316 0.11696 0.0581 0.12463 0.0586 8e-3 7e-4 0.0812-0.0291 0.16276-0.066z"/>
				</g>
				<g id="black-king-piece-lowlights">
					<path id="bkpl1" d="m7.8221 6.679c-0.20322-0.60431-0.3018-0.97657-0.35598-1.3428-0.0807-0.54618 0.0281-0.96658 0.29623-1.144 0.083-0.0549 0.12277-0.0651 0.25298-0.0651s0.16997 0.0102 0.25298 0.0651c0.34947 0.23112 0.41202 0.78916 0.18833 1.6788-0.0777 0.30878-0.41713 1.337-0.44131 1.337-8e-3 0-0.0953-0.2381-0.19323-0.52898z"/>
					<path id="bkpl2" d="m11.112 8.809c-0.0321-0.013-0.21508-0.0642-0.4069-0.11417-0.66733-0.17323-1.3205-0.26926-2.0004-0.2939l-0.39621-0.0144 0.0167-0.17439c0.0935-0.9789 0.70918-1.8839 1.7613-2.5893 0.9203-0.61687 1.7236-0.69616 2.2487-0.22159 0.28809 0.26042 0.41853 0.73708 0.32389 1.184-0.0681 0.3218-0.20345 0.55409-0.73824 1.2684-0.14625 0.19555-0.35366 0.49642-0.46062 0.66849-0.20485 0.32924-0.21717 0.33948-0.34831 0.28693z"/>
					<path id="bkpl3" d="m4.5821 8.524c-0.10772-0.17322-0.31557-0.4748-0.46189-0.67035-0.41414-0.55316-0.51057-0.69709-0.61125-0.91194-0.21117-0.45062-0.21312-0.87845-6e-3 -1.2728 0.18465-0.35157 0.58827-0.57711 1.032-0.57711 0.52898 0 1.2165 0.32111 1.8841 0.87961 0.77336 0.64733 1.2179 1.4165 1.297 2.2443l0.017 0.17788-0.23345 2.3e-4c-0.65616 7e-4 -1.5916 0.13835-2.3031 0.33901-0.16625 0.0467-0.32855 0.09-0.36041 0.0956-0.053 0.01-0.0763-0.0181-0.25414-0.30437z"/>
				</g>
			</g>
		</g>
		<path id="7-template" d="m0 0q-1.1289 1.7248-1.5941 2.7021-0.46516 0.97737-0.70036 1.9286-0.22997 0.95123-0.22997 1.9704h-0.98259q0-1.4112 0.59583-2.9687 0.60105-1.5627 2.0018-3.5959h-3.9565v-0.79966h4.8659z" />
        <g id="black-pawn-template">
            <rect id="black-pawn-border" width="15.595" height="15.595" style="fill:none;stroke-linecap:round;stroke-linejoin:round;stroke-width:.25219" />
            <path id="black-pawn-piece" d="m4.29 12.23c-0.0516-0.31041-0.0407-0.92868 0.0221-1.2435 0.19136-0.96169 0.75266-1.799 1.5504-2.3136 0.25507-0.16462 0.49712-0.27972 0.84869-0.40412 0.0216-0.0077-0.0356-0.04883-0.15114-0.10882-0.27809-0.14439-0.52828-0.40226-0.67105-0.69128-0.13974-0.28297-0.18601-0.49782-0.1702-0.7901 0.0226-0.41969 0.17811-0.76591 0.48085-1.07 0.27065-0.27205 0.69825-0.46457 1.0314-0.46457h0.11695l-0.12649-0.06278c-0.16508-0.08161-0.36877-0.28693-0.44969-0.45248-0.18554-0.38086-0.11416-0.82939 0.17858-1.1221 0.44899-0.44899 1.2582-0.44899 1.7071 0 0.29274 0.29274 0.36413 0.74127 0.17858 1.1221-0.0807 0.16555-0.2846 0.37087-0.44946 0.45248l-0.12672 0.06278h0.11719c0.33319 0 0.76056 0.19252 1.0312 0.46457 0.30274 0.30413 0.4583 0.65035 0.48108 1.07 0.0158 0.29228-0.0305 0.50712-0.1702 0.7901-0.14277 0.28902-0.39319 0.54688-0.67128 0.69128-0.11556 0.05999-0.17276 0.10115-0.15114 0.10882 0.3518 0.1244 0.59362 0.23949 0.84869 0.40412 0.798 0.51456 1.3591 1.3519 1.5504 2.3136 0.0628 0.31483 0.0737 0.93309 0.0221 1.2435l-0.0318 0.19183h-6.9641z" style="stroke-width:.023252;stroke:#000"/>
        </g>
		<path id="6-template" d="m0 0q0 1.1655-0.63241 1.8397-0.63241 0.67423-1.7457 0.67423-1.2439 0-1.9025-0.9251-0.65855-0.9251-0.65855-2.6917 0-1.9129 0.68468-2.9373t1.9495-1.0244q1.6673 0 2.1011 1.5l-0.89897 0.16202q-0.27701-0.89896-1.2126-0.89896-0.80489 0-1.2491 0.75262-0.43903 0.7474-0.43903 2.169 0.2561-0.47562 0.72126-0.72127 0.46516-0.25087 1.0662-0.25087 1.0192 0 1.615 0.63764 0.60105 0.63764 0.60105 1.7143zm-0.95646 0.0418q0-0.79966-0.39199-1.2335-0.39199-0.4338-1.0923-0.4338-0.65855 0-1.0662 0.38676-0.40244 0.38154-0.40244 1.0558 0 0.85193 0.41812 1.3955 0.42335 0.54356 1.0819 0.54356 0.67945 0 1.0662-0.45471 0.38676-0.45994 0.38676-1.2596z" />
		<path id="5-template" d="m0 0q0 1.1655-0.69513 1.8345-0.6899 0.669-1.9181 0.669-1.0296 0-1.662-0.44948-0.63241-0.44948-0.79966-1.3014l0.95123-0.10976q0.29791 1.0924 1.5314 1.0924 0.75785 0 1.1864-0.45471 0.42858-0.45994 0.42858-1.2596 0-0.69513-0.4338-1.1237-0.42858-0.42857-1.1603-0.42857-0.38154 0-0.71081 0.12021t-0.65854 0.40767h-0.91987l0.24565-3.9617h4.1865v0.79966h-3.3293l-0.14112 2.3363q0.61151-0.47039 1.5209-0.47039 1.0871 0 1.73 0.63764 0.64809 0.63764 0.64809 1.662z" />
		<path id="4-template" d="m0 0v1.6673h-0.88851v-1.6673h-3.4704v-0.73172l3.3711-4.9652h0.98782v4.9548h1.0349v0.74217zm-0.88851-4.636q-0.01045 0.0314-0.14634 0.27701-0.13589 0.24564-0.20384 0.34495l-1.8868 2.7805-0.28223 0.38677-0.08362 0.10453h2.6028z" />
		<path id="3-template" d="m0 0q0 1.0192-0.64809 1.5784-0.64809 0.55924-1.8502 0.55924-1.1185 0-1.7875-0.50175-0.66377-0.50697-0.78921-1.4948l0.97214-0.0888q0.18816 1.3066 1.6046 1.3066 0.71081 0 1.1133-0.35017 0.40767-0.35018 0.40767-1.0401 0-0.60105-0.46516-0.93555-0.45994-0.33973-1.3328-0.33973h-0.53311v-0.81534h0.5122q0.77353 0 1.1969-0.3345 0.42858-0.33972 0.42858-0.93555 0-0.5906-0.35018-0.93033-0.34495-0.34495-1.0296-0.34495-0.62196 0-1.0087 0.31882-0.38154 0.31882-0.44426 0.89897l-0.94601-0.0732q0.10453-0.90419 0.7474-1.4112 0.64809-0.50698 1.662-0.50698 1.108 0 1.7195 0.51743 0.61673 0.5122 0.61673 1.4321 0 0.70558-0.39722 1.1498-0.39199 0.43903-1.1446 0.59582v0.0209q0.8258 0.0888 1.2857 0.55401 0.45994 0.46517 0.45994 1.1708z" />
		<path id="2-template" d="m0 0v-0.66377q0.26655-0.61151 0.64809-1.0767 0.38676-0.47039 0.81012-0.8467 0.42335-0.38154 0.83625-0.70558 0.41812-0.32405 0.75262-0.64809 0.3345-0.32405 0.53833-0.67945 0.20906-0.3554 0.20906-0.80489 0-0.60628-0.3554-0.94078-0.35541-0.3345-0.98782-0.3345-0.60105 0-0.99304 0.32927-0.38676 0.32405-0.45471 0.91465l-0.96168-0.0888q0.10453-0.88329 0.7474-1.4059 0.64809-0.52266 1.662-0.52266 1.1133 0 1.7091 0.52788 0.60105 0.52266 0.60105 1.4896 0 0.42858-0.19861 0.85193-0.19338 0.42335-0.58015 0.8467-0.38676 0.42335-1.4791 1.3119-0.60105 0.4913-0.95646 0.88851-0.3554 0.39199-0.5122 0.75785h3.8415v0.79966z" />
        <g id="white-pawn-template">
            <rect id="white-pawn-border" width="15.595" height="15.595" style="fill:none;stroke-linecap:round;stroke-linejoin:round;stroke-width:.25219;stroke:#000"/>
            <g id="white-pawn-piece" style="stroke-width:.023252">
                <path id="white-pawn-piece-background" d="m4.24 12.61c-0.14189-0.0572-0.20104-0.3332-0.20167-0.94146-5.1e-4 -0.50341 0.0349-0.7222 0.1939-1.2 0.30172-0.90658 0.96253-1.692 1.7808-2.1168l0.23391-0.12137-0.11765-0.0958c-0.25089-0.20438-0.4741-0.55688-0.57548-0.90821-0.0433-0.15044-0.053-0.23903-0.0519-0.4755 1e-3 -0.25252 0.01-0.31646 0.066-0.48829 0.17532-0.53642 0.48248-0.89682 0.96681-1.1352l0.22089-0.10882-0.0984-0.14649c-0.19671-0.29367-0.2581-0.6463-0.16928-0.97506 0.0986-0.36582 0.296-0.60622 0.63478-0.77314 0.43736-0.21564 0.89775-0.21564 1.3351 0 0.33878 0.16692 0.53619 0.40732 0.63478 0.77314 0.0888 0.32876 0.0274 0.68139-0.16928 0.97506l-0.0983 0.14649 0.22089 0.10882c0.48434 0.23833 0.79149 0.59873 0.96681 1.1352 0.056 0.17183 0.0646 0.23577 0.066 0.48829 1e-3 0.23647-9e-3 0.32506-0.0519 0.4755-0.10137 0.35133-0.32459 0.70383-0.57548 0.90821l-0.11765 0.0958 0.23391 0.12137c0.81823 0.42481 1.479 1.2103 1.7808 2.1168 0.15905 0.47783 0.19439 0.69662 0.19369 1.2-4.6e-4 0.61966-0.0595 0.88612-0.2088 0.94286-0.0751 0.0284-7.0225 0.0272-7.0934-1e-3z"/>
                <path id="white-pawn-piece-highlights" d="m11.11 12.15c0.01-0.0351 0.0172-0.2574 0.0163-0.4941-2e-3 -0.47945-0.0407-0.72662-0.17555-1.1089-0.33018-0.93588-1.0989-1.7123-2.0201-2.0406-0.23158-0.0823-0.2739-0.11277-0.29227-0.21043-0.0226-0.12114 0.0293-0.17904 0.26205-0.29111 0.72638-0.35064 0.99099-1.2528 0.57687-1.9671-0.1123-0.19369-0.37458-0.43225-0.59617-0.542-0.18509-0.0916-0.28135-0.11626-0.60385-0.1537-0.11952-0.0139-0.19834-0.0732-0.22182-0.16671-0.0244-0.097 0.0351-0.17323 0.19996-0.25647 0.18718-0.0942 0.31065-0.21345 0.39156-0.37807 0.0549-0.11161 0.0628-0.15579 0.0628-0.34873 0-0.19448-8e-3 -0.23664-0.0646-0.35252-0.0802-0.16323-0.20903-0.28188-0.40923-0.3767-0.14695-0.0697-0.16695-0.073-0.44457-0.073-0.27763 0-0.29763 3e-3 -0.44458 0.073-0.2002 0.0948-0.32901 0.21347-0.40923 0.3767-0.057 0.11588-0.0646 0.15804-0.0646 0.35252 0 0.19294 8e-3 0.23712 0.0628 0.34873 0.0809 0.16462 0.20438 0.2839 0.39156 0.37807 0.16486 0.0832 0.22438 0.15951 0.19997 0.25647-0.0235 0.0935-0.10231 0.15276-0.22183 0.16671-0.3225 0.0374-0.41876 0.0621-0.60384 0.1537-0.22159 0.10975-0.48387 0.34831-0.59618 0.542-0.16927 0.29181-0.23205 0.64733-0.17485 0.9875 0.0686 0.40621 0.36551 0.79335 0.75173 0.9796 0.23275 0.11207 0.2846 0.16997 0.26204 0.29111-0.0184 0.0977-0.0607 0.12812-0.29227 0.21043-0.92124 0.32831-1.6899 1.1047-2.0201 2.0406-0.13486 0.38226-0.17393 0.62943-0.17556 1.1089-9.3e-4 0.2367 7e-3 0.45899 0.0163 0.4941l0.0179 0.0639h6.6016z" style="fill:#fff"/>
            </g>
        </g>
		<path id="1-template" d="m0 0v-0.79966h1.8763v-5.6656l-1.662 1.1864v-0.88851l1.7404-1.1969h0.86761v6.5645h1.7927v0.79966z" />
        <g id="white-rook-template">
            <rect id="white-rook-border" width="15.595" height="15.595" style="fill:none;stroke-linecap:round;stroke-linejoin:round;stroke-width:.25219;stroke:#000"/>
            <g id="white-rook-piece" style="stroke-width:.023252">
                <path id="white-rook-piece-background" d="m3.93 12.37c-0.10547-0.0577-0.117-0.12626-0.10921-0.64965l7e-3 -0.48224 0.0652-0.0563c0.059-0.0507 0.0863-0.056 0.28484-0.056h0.2195l2.3e-4 -0.41272c0-0.36808 5e-3 -0.42016 0.0449-0.48247 0.0249-0.0384 0.24415-0.27903 0.48736-0.53479l0.44271-0.46504 4.7e-4 -1.6509 7e-4 -1.6509-0.54735-0.41621c-0.30088-0.2288-0.55711-0.43481-0.56944-0.45759-0.0129-0.0242-0.0222-0.38319-0.0222-0.85804 0-0.89315 4e-3 -0.92072 0.13405-0.97464 0.0474-0.0197 0.26948-0.0256 0.7794-0.0207 0.88286 8e-3 0.8152-0.0246 0.8266 0.40265l8e-3 0.29007h0.78661v-0.24489c0-0.28433 0.0311-0.38445 0.13207-0.42623 0.0497-0.0207 0.29622-0.0263 0.93216-0.0214 1.0586 8e-3 0.96658-0.0297 0.9782 0.40249l8e-3 0.29007h0.78661v-0.25691c0-0.28863 0.0265-0.37054 0.13416-0.41509 0.0474-0.0197 0.26949-0.0256 0.7794-0.0207 0.70663 7e-3 0.71337 7e-3 0.76592 0.0597 0.0528 0.0529 0.0528 0.0537 0.0595 0.90382 6e-3 0.70314 9.3e-4 0.85939-0.0263 0.90031-0.0181 0.0272-0.27461 0.23275-0.57037 0.45643l-0.53735 0.40691v1.6509l-2.3e-4 1.6509 0.46759 0.49945c0.25717 0.27483 0.4769 0.52386 0.48829 0.55386 0.0114 0.0298 0.0205 0.23042 0.0205 0.44573v0.39156l0.23205 8e-3c0.35157 0.0121 0.33762-0.0142 0.33762 0.6357 0 0.51224-9.3e-4 0.52294-0.0528 0.57479l-0.053 0.053-3.83 5e-3c-3.2771 4e-3 -3.8389 2.3e-4 -3.891-0.0281z" />
                <g id="white-rook-piece-highlights" style="fill:#fff">
                    <path id="wkrph1" d="m10.93 4.19v-0.56967h-0.90286l-8e-3 0.29007c-0.0114 0.42488 0.047 0.39419-0.76823 0.40279-0.46644 5e-3 -0.67407-1e-3 -0.72151-0.0207-0.10765-0.0447-0.13416-0.12652-0.13416-0.41523v-0.25694h-1.2091v0.27775c0 0.26-3e-3 0.28188-0.056 0.34296l-0.056 0.0652-0.65732 7e-3c-0.46829 5e-3 -0.67663-1e-3 -0.72406-0.0207-0.10766-0.0447-0.13417-0.12652-0.13417-0.41523v-0.25694h-0.90682v1.1393h6.278z" />
                    <path id="wkrph2" d="m10.24 5.4 0.28228-0.21508-1.3651-6e-3c-0.7508-3e-3 -1.9787-3e-3 -2.7286 0l-1.3635 6e-3 0.55292 0.42783 4.3397 2e-3z" />
                    <path id="wkrph3" d="m9.79 7.57v-1.5346h-3.9993v3.0692h3.9993z" />
                    <path id="wkrph4" d="m10.45 10.1c-0.0235-0.0295-0.1523-0.1709-0.2867-0.3139l-0.24414-0.26018h-4.2586l-0.29646 0.3139-0.29669 0.31389h5.4249z" />
                    <path id="wkrph5" d="m10.77 10.85v-0.27902h-5.9524v0.55804h5.9524z" />
                    <path id="wkrph6" d="m11.35 11.77v-0.22089h-7.115l1.2e-4 0.22089v0.22089h7.1148v-0.22089z" />
                </g>
            </g>
        </g>
        <g id="white-knight-template">
            <rect id="white-knight-border" width="15.595" height="15.595" style="fill:none;stroke-linecap:round;stroke-linejoin:round;stroke-width:.25219;stroke:#000" />
            <g id="white-knight-piece" style="stroke-width:.023252">
                <path id="white-knight-piece-background" d="m5.42 12.92c-0.18788-0.0937-0.21578-0.64663-0.0565-1.1152 0.13625-0.4004 0.29343-0.61199 0.89426-1.2037 0.5413-0.53317 0.68546-0.70872 0.8538-1.0394 0.20113-0.39458 0.28019-0.70685 0.30135-1.187 7e-3 -0.16951 8e-3 -0.30809 1e-3 -0.30809s-0.12091 0.0663-0.25345 0.14742c-0.13253 0.0809-0.43085 0.24368-0.66314 0.36156-0.88124 0.44737-1.0196 0.57874-1.4128 1.3414-0.073 0.1416-0.17951 0.31715-0.23694 0.39016-0.18322 0.23368-0.47806 0.41016-0.68476 0.41016-0.0882 0-0.24987-0.0607-0.3355-0.12602-0.0399-0.0305-0.0915-0.0972-0.11456-0.14835-0.038-0.0844-0.0522-0.0946-0.14989-0.10905-0.66746-0.0984-1.1408-0.67895-1.0883-1.3351 0.0337-0.42179 0.22354-0.84358 0.70085-1.5572 0.32667-0.48828 0.45944-0.72522 0.55051-0.98215 0.0472-0.13323 0.0527-0.19252 0.0536-0.5785l1e-3 -0.43016 0.0753-0.15904c0.0627-0.13254 0.12879-0.21206 0.39586-0.47667 0.17625-0.17462 0.35063-0.36249 0.38784-0.4176l0.0674-0.1-0.0512-0.64407c-0.0702-0.8878-0.0704-0.8855 0.0739-0.94619 0.0984-0.0413 0.0935-0.0436 0.83684 0.40361 0.34296 0.20633 0.63151 0.37516 0.64128 0.37516 0.01 0 0.19345-0.1881 0.4083-0.41802 0.32367-0.34642 0.40435-0.42062 0.47108-0.43313 0.14207-0.0267 0.17555 0.0209 0.46457 0.65614l0.26507 0.58232 0.14416-0.0211c0.20718-0.0303 0.71151-4e-3 0.97332 0.0516 0.47573 0.10024 0.94798 0.30474 1.3302 0.57599 0.2553 0.18114 0.66639 0.59688 0.85659 0.86637 0.41133 0.58245 0.70941 1.2342 0.98262 2.1489 0.46899 1.5704 0.75801 3.4068 0.76568 4.8664 2e-3 0.45968 1e-3 0.47131-0.0504 0.52316l-0.053 0.0532-3.644 6e-3c-2.8751 4e-3 -3.6563-4.7e-4 -3.7021-0.0235z" />
                <g id="white-knight-piece-highlights" style="fill:#fff">
                    <path id="wknph1" d="m5.43 3.5c-0.20577-0.12353-0.37691-0.22175-0.38063-0.21822-3e-3 4e-3 6e-3 0.17372 0.0214 0.37819l0.0277 0.37178 0.35273-0.15356 0.35296-0.15355z" />
                    <path id="wknph2" d="m12.48 12.52c0.0672-0.067 0.0672-0.07-5e-3 -0.98703-0.13486-1.7132-0.5527-3.7294-1.0142-4.8945-0.13509-0.34111-0.39272-0.82893-0.57106-1.0812-0.38272-0.54153-0.95169-0.98471-1.5304-1.1926-0.34692-0.12472-0.61571-0.16781-1.0326-0.16567-0.24926 1e-3 -0.44458 0.0146-0.55735 0.038-0.0953 0.0197-0.18578 0.0314-0.20043 0.0258-0.0149-6e-3 -0.10858-0.19032-0.20833-0.41014-0.0998-0.21985-0.20741-0.4566-0.23926-0.52607l-0.0577-0.12638-0.36249 0.3744-0.3625 0.37438-0.63175 0.27184-0.63152 0.27193-0.1523 0.20391c-0.0839 0.11208-0.25739 0.30088-0.38598 0.41947-0.34482 0.31808-0.33738 0.30087-0.33947 0.78986-1e-3 0.35017-9e-3 0.43109-0.0535 0.58129-0.088 0.296-0.28414 0.66547-0.61685 1.1626-0.36498 0.54525-0.55485 0.90775-0.60908 1.1628-0.0461 0.21671-0.0325 0.48759 0.0316 0.63036 0.11319 0.25228 0.39135 0.45224 0.66426 0.47782l0.1493 0.0139 0.15574-0.20671c0.0857-0.11346 0.17852-0.21926 0.20638-0.23461 0.11261-0.063 0.23398-0.023 0.28258 0.093 0.0412 0.0974 0.0207 0.14439-0.17672 0.40737-0.0895 0.11905-0.15936 0.23415-0.15527 0.25577 0.0135 0.0711 0.15806 0.0628 0.26595-0.0154 0.14928-0.10812 0.24903-0.24786 0.45178-0.63268 0.10394-0.1974 0.23438-0.42271 0.28995-0.50061 0.21322-0.29925 0.53503-0.53223 1.2047-0.87264 0.65895-0.33482 1.2416-0.70638 1.4137-0.90147 0.20275-0.22996 0.28878-0.49805 0.26855-0.83799-0.0151-0.25484 0.0107-0.33087 0.12556-0.37087 0.0581-0.0202 0.0891-0.0181 0.15021 0.0109 0.0972 0.0463 0.12719 0.12626 0.14323 0.38226 0.0246 0.39063-0.15044 0.85218-0.43178 1.1384l-0.1544 0.15718 0.0186 0.14811c0.0279 0.2209 0 0.7229-0.0535 0.96216-0.10557 0.47155-0.3039 0.92054-0.56363 1.2751-0.077 0.10533-0.36435 0.41249-0.645 0.68965-0.50061 0.49456-0.64547 0.66965-0.75917 0.91844-0.0726 0.15811-0.12393 0.40133-0.12463 0.58711l-2.3e-4 0.14532h3.2887c2.1673 0 3.2936 8e-3 3.3031 0.0233 0.0281 0.0456 0.15184 0.0244 0.21229-0.036z" />
                </g>
                <g id="white-knight-piece-lowlights">
                    <path id="wknpl1" d="m4.49 6.36c0.1051-0.1981 0.40854-0.68592 0.47015-0.75614 0.12533-0.14277 0.31972-0.20392 0.4683-0.14742 0.0328 0.0123 0.0598 0.036 0.0598 0.0528 0 0.0723-0.18857 0.34552-0.34947 0.50596-0.13277 0.13253-0.22252 0.1981-0.37203 0.27204-0.10835 0.0535-0.22159 0.10417-0.25135 0.11231-0.0507 0.0142-0.0526 0.0116-0.0254-0.0395z" />
                    <path id="wknpl2" d="m3.05 9.21c9e-3 -0.18415 0.0236-0.25903 0.0715-0.36366 0.0634-0.13858 0.16688-0.22577 0.26807-0.22601 0.13084-2.3e-4 0.26042 0.13068 0.26042 0.26275 0 0.10021-0.10029 0.2081-0.35789 0.38505l-0.25326 0.17392z" />
                </g>
            </g>
        </g>
		<g id="white-bishop-template">
			<rect id="white-bishop-border" x=".12609" y=".2389" width="15.595" height="15.595" style="fill:none;stroke-linecap:round;stroke-linejoin:round;stroke-width:.25219;stroke:#000"/>
			<g id="white-bishop-piece" style="stroke-width:.023252">
				<path id="white-bishop-piece-background" d="m3.3961 12.759c-0.22197-0.22042-0.4094-0.42411-0.41651-0.45224-0.0248-0.0984 0.028-0.17904 0.21761-0.33227 0.3688-0.29786 0.78972-0.50968 1.2505-0.62943 0.40272-0.10463 0.60245-0.12067 1.2788-0.10324 0.79684 0.0205 1.1321-0.0235 1.3928-0.18252l0.0907-0.0553-0.18369-0.04c-0.31134-0.0677-0.73011-0.21741-1.0333-0.36947-0.41807-0.2095-0.40342-0.14393-0.20624-0.92821 0.0877-0.34832 0.1595-0.64385 0.1595-0.65663 0-0.0128-0.0579-0.0646-0.12881-0.11557-0.3439-0.24623-0.60966-0.64709-0.73522-1.1089-0.0426-0.15602-0.0523-0.25042-0.0509-0.48457 2e-3 -0.34831 0.0514-0.55595 0.20694-0.87566 0.24507-0.50387 0.57432-0.82962 1.4881-1.4732 0.31204-0.21973 0.56897-0.40877 0.74987-0.55093 0.0312-0.0245 0.02-0.0433-0.0825-0.13951-0.16951-0.15923-0.24857-0.33885-0.24857-0.56509-4.6e-4 -0.31262 0.1723-0.57241 0.47643-0.71725 0.1809-0.0862 0.42342-0.0862 0.60455 0 0.1895 0.0902 0.31274 0.20939 0.40016 0.38689 0.15184 0.3086 0.0856 0.65309-0.17253 0.89545-0.1023 0.0962-0.11346 0.115-0.0823 0.13951 0.18067 0.14216 0.43783 0.3312 0.74987 0.55093 0.9138 0.64361 1.243 0.96936 1.4881 1.4732 0.15532 0.31971 0.20438 0.52735 0.2067 0.87566 2e-3 0.23415-8e-3 0.32855-0.0507 0.48457-0.12555 0.46178-0.39155 0.86264-0.73545 1.1089-0.0707 0.0509-0.12881 0.10278-0.12858 0.11557 0 0.0128 0.0719 0.30831 0.15927 0.65663 0.19741 0.78428 0.21206 0.71871-0.20601 0.92821-0.3032 0.15206-0.72196 0.3018-1.0333 0.36947l-0.18368 0.04 0.0907 0.0553c0.26042 0.15904 0.59571 0.20299 1.3928 0.18252 0.67639-0.0174 0.87613-1e-3 1.2788 0.10324 0.46387 0.12045 0.87496 0.32832 1.2551 0.63431 0.15788 0.12696 0.1988 0.17299 0.21066 0.23647 8e-3 0.0435 4e-3 0.0986-9e-3 0.12231-0.013 0.0237-0.20043 0.21833-0.41643 0.43248-0.27438 0.27204-0.40854 0.38947-0.44504 0.38947-0.067 0-0.10859-0.0228-0.28716-0.15765-0.18299-0.13835-0.4662-0.28646-0.69267-0.36203-0.25647-0.0858-0.59083-0.12672-1.2551-0.15323-0.83265-0.033-1.1972-0.10626-1.6206-0.32459l-0.21624-0.11138-0.21625 0.11138c-0.42341 0.21833-0.788 0.29157-1.6206 0.32459-0.66431 0.0265-0.9989 0.0674-1.2554 0.15323-0.22624 0.0756-0.50956 0.22368-0.6925 0.36203-0.17855 0.13486-0.22018 0.15765-0.28712 0.15765-0.0367 0-0.1732-0.11998-0.45589-0.4011z"/>
				<g id="white-bishop-piece-highlights" style="fill:#fff">
					<path id="wkbph1" d="m6.5161 8.5689c0.86822-0.27205 1.7271-0.29158 2.6044-0.0588 0.14393 0.0384 0.31925 0.0912 0.3897 0.11742l0.12835 0.0481 0.11184-0.0821c0.61966-0.45504 0.82753-1.2893 0.49317-1.9799-0.21833-0.45132-0.55478-0.76917-1.5497-1.4644-0.16462-0.1151-0.40667-0.29506-0.53781-0.40016l-0.23856-0.1909-0.23857 0.1909c-0.13114 0.1051-0.37319 0.28506-0.53804 0.40016-0.99471 0.69523-1.3312 1.0131-1.5495 1.4644-0.28228 0.58292-0.18415 1.2763 0.24903 1.7578 0.12811 0.1423 0.33901 0.3039 0.3797 0.29065 0.0191-6e-3 0.1523-0.0481 0.29599-0.0932z"/>
					<path id="wkbph2" d="m6.3561 9.8189c0.21833-0.089 0.61152-0.19926 0.88984-0.24972 0.30716-0.0556 1.0417-0.0556 1.3486 0 0.28948 0.0525 0.61338 0.143 0.86799 0.24228 0.11277 0.0442 0.20996 0.0756 0.21577 0.0698 6e-3 -6e-3 -0.0344-0.1909-0.0891-0.41133-0.1151-0.46387-0.0809-0.42481-0.4669-0.53316-0.4169-0.11719-0.69732-0.15276-1.2021-0.15276-0.5048 0-0.78522 0.0356-1.2021 0.15276-0.38435 0.10789-0.35343 0.0739-0.45853 0.50084-0.05 0.20276-0.0956 0.38691-0.10137 0.40924-0.0142 0.0544 1e-3 0.0521 0.19787-0.0279z"/>
					<path id="wkbph3" d="m8.7061 10.569c0.27855-0.0579 0.62012-0.16579 0.77498-0.24507l0.08-0.0407-0.11022-0.0488c-0.19578-0.0865-0.60152-0.20764-0.84032-0.25043-0.32482-0.0586-1.0473-0.0586-1.3718 0-0.2388 0.0428-0.64477 0.16393-0.84032 0.25043l-0.11021 0.0488 0.08 0.0407c0.2288 0.11718 0.73429 0.25507 1.1063 0.30227 0.29297 0.037 0.91775 8e-3 1.2316-0.0572z"/>
					<path id="wkbph4" d="m4.0161 12.589c0.18371-0.12509 0.56134-0.29971 0.79154-0.36621 0.30599-0.0884 0.62245-0.12626 1.2744-0.15253 0.32599-0.0133 0.66081-0.0351 0.74405-0.0484 0.3525-0.0563 0.67012-0.17787 0.92821-0.35482 0.12952-0.0888 0.19974-0.0888 0.32925 0 0.25809 0.17695 0.57571 0.29855 0.92821 0.35482 0.083 0.0133 0.41783 0.0351 0.74406 0.0484 0.65198 0.0263 0.9682 0.0642 1.2744 0.15253 0.23112 0.0667 0.6078 0.24112 0.79335 0.36761l0.12649 0.086 0.2074-0.20741 0.20741-0.20764-0.19695-0.1309c-0.31203-0.20764-0.62314-0.33901-1.0054-0.42458-0.15928-0.0356-0.31134-0.0419-1.058-0.044-0.86636-3e-3 -0.87333-3e-3 -1.1005-0.0642-0.12556-0.034-0.28647-0.0881-0.35762-0.12068-0.14904-0.0684-0.38319-0.23135-0.48201-0.33552-0.0646-0.0686-0.0774-0.0723-0.24553-0.0723-0.16811 0-0.1809 4e-3 -0.24554 0.0723-0.0988 0.10417-0.33297 0.26716-0.48224 0.33552-0.0709 0.0326-0.23182 0.0867-0.35738 0.12068-0.22717 0.0611-0.23415 0.0616-1.1005 0.0642-0.74661 2e-3 -0.89868 8e-3 -1.058 0.044-0.37912 0.0849-0.68132 0.21182-1.0032 0.42155l-0.20143 0.13138 0.2065 0.2074c0.11359 0.11417 0.20831 0.20741 0.21048 0.20741 2e-3 0 0.0599-0.0381 0.12837-0.0846z"/>
					<path id="wkbph5" d="m8.1061 4.0189c0.2474-0.16671 0.2474-0.47159 0-0.63831-0.22833-0.15376-0.5599 0.0353-0.5599 0.31916 0 0.28383 0.33157 0.47292 0.5599 0.31915z"/>
				</g>
				<path id="white-bishop-piece-cross" d="m7.8061 7.6189c-0.0753-0.0579-0.0909-0.12951-0.0909-0.42016v-0.29041l-0.31599-8e-3c-0.31344-7e-3 -0.31646-8e-3 -0.37203-0.0728-0.0716-0.0835-0.0716-0.18136 0-0.26484 0.0556-0.0646 0.0588-0.0653 0.37017-0.0728l0.31436-8e-3 7e-3 -0.31413c8e-3 -0.31134 8e-3 -0.31483 0.0728-0.37017 0.0835-0.0719 0.1816-0.0719 0.26484 0 0.0646 0.0553 0.0653 0.0588 0.0728 0.37017l8e-3 0.31413 0.31413 8e-3c0.31158 7e-3 0.31483 8e-3 0.3704 0.0728 0.0716 0.0835 0.0716 0.18137 0 0.26484-0.0556 0.0646-0.0588 0.0653-0.37203 0.0728l-0.31599 8e-3v0.29041c0 0.29065-0.0156 0.36227-0.0909 0.42016-0.0477 0.0365-0.18904 0.0365-0.23671 0z"/>
			</g>
		</g>
		<g id="white-queen-template">
			<rect id="white-queen-border" x="0.13" y="-0.0010967138" width="15.595" height="15.595" style="fill:none;stroke-linecap:round;stroke-linejoin:round;stroke-width:.25219;stroke:#000" />
				<g id="white-queen-piece" style="stroke-width:.023252">
				<path id="white-queen-piece-background" d="m 6.3760936,12.62781 c -0.67849,-0.0356 -1.3261,-0.19764 -1.8218,-0.45574 -0.24208,-0.12626 -0.31739,-0.19508 -0.31739,-0.29018 0,-0.0323 0.0993,-0.28647 0.22066,-0.56526 l 0.22066,-0.50666 -0.20741,-0.4762 -0.20747,-0.47644 -0.4241,-0.51921 c -0.23324,-0.28554 -0.43474,-0.53294 -0.44776,-0.54991 -0.013,-0.017 -0.13428,-0.91497 -0.26945,-1.9953 l -0.24575,-1.9643 -0.15376,-0.0516 c -0.18788,-0.0633 -0.30574,-0.15021 -0.39566,-0.29158 -0.15873,-0.24996 -0.17393,-0.51969 -0.0441,-0.78329 0.13291,-0.26998 0.37628,-0.41433 0.69856,-0.41433 0.32227,0 0.56565,0.14435 0.69856,0.41433 0.15404,0.3129 0.10854,0.59634 -0.14958,0.93187 -0.0134,0.0174 0.21505,0.51131 0.65087,1.4072 l 0.67147,1.3805 0.0977,-1.6962 c 0.0535,-0.93287 0.0981,-1.7302 0.0988,-1.7713 0.001,-0.064 -0.0114,-0.0819 -0.0856,-0.12022 -0.15649,-0.0807 -0.27972,-0.20705 -0.35948,-0.36912 -0.19531,-0.39691 -0.0237,-0.84677 0.40017,-1.0486 0.26228,-0.12488 0.58432,-0.0682 0.83033,0.14617 0.0579,0.0505 0.12905,0.14858 0.17439,0.24072 0.066,0.13417 0.0765,0.17953 0.0765,0.33086 0,0.15132 -0.0105,0.19668 -0.0765,0.33085 -0.0451,0.0914 -0.11533,0.18862 -0.17044,0.23584 l -0.0939,0.0803 0.57735,1.6758 c 0.31762,0.92171 0.58316,1.676 0.5899,1.6762 0.007,2.3e-4 0.15951,-0.84451 0.33879,-1.8769 l 0.32599,-1.8773 -0.0998,-0.0661 c -0.22252,-0.14732 -0.3446,-0.37554 -0.34483,-0.64419 -4.7e-4,-0.31263 0.1723,-0.57242 0.47643,-0.71726 0.18114,-0.0862 0.42342,-0.0862 0.60456,0 0.1895,0.0902 0.31273,0.20939 0.40016,0.38689 0.066,0.13421 0.0765,0.17944 0.0763,0.33037 -2.3e-4,0.26865 -0.12231,0.49687 -0.34483,0.64419 l -0.0998,0.0661 0.32599,1.8773 c 0.17928,1.0324 0.33181,1.8771 0.33879,1.8769 0.007,-2.3e-4 0.27228,-0.75453 0.5899,-1.6762 l 0.5773504,-1.6758 -0.0939,-0.0803 c -0.0551,-0.0472 -0.12533,-0.14446 -0.17044,-0.23584 -0.19532,-0.39691 -0.0237,-0.84677 0.40017,-1.0486 0.18113,-0.0862 0.42342,-0.0862 0.60455,0 0.1895,0.0902 0.31274,0.20939 0.40017,0.38689 0.066,0.13417 0.0765,0.17953 0.0765,0.33086 0,0.15132 -0.0105,0.19668 -0.0765,0.33085 -0.0798,0.16207 -0.20299,0.28844 -0.35948,0.36912 -0.0742,0.0384 -0.087,0.0563 -0.0856,0.12022 7e-4,0.0411 0.0453,0.83846 0.0988,1.7713 l 0.0977,1.6962 0.67152,-1.3805 c 0.43574,-0.8959 0.66431,-1.3898 0.65082,-1.4072 -0.25809,-0.33553 -0.30367,-0.61897 -0.14951,-0.93187 0.13277,-0.26998 0.37622,-0.41433 0.69849,-0.41433 0.32228,0 0.56572,0.14435 0.69849,0.41433 0.12998,0.2636 0.11464,0.53333 -0.0439,0.78329 -0.09,0.14137 -0.20788,0.22833 -0.39575,0.29158 l -0.1537,0.0516 -0.24577,1.9643 c -0.13533,1.0803 -0.25647,1.9783 -0.26949,1.9953 -0.013,0.017 -0.21462,0.26437 -0.44784,0.54991 l -0.42411,0.51921 -0.20741,0.47644 -0.20741,0.4762 0.22066,0.50666 c 0.12138,0.27879 0.22067,0.53294 0.22067,0.56526 0,0.0951 -0.0753,0.16392 -0.31739,0.29018 -0.38413,0.19997 -0.85126,0.34157 -1.3786,0.41784 -0.1981,0.0286 -0.54898,0.0365 -1.815,0.04 -0.86311,0.003 -1.6269,0.002 -1.6974,-0.002 z" />
					<g id="white-queen-piece-highlights" style="fill:#fff">
					<path id="wqph01" d="m 8.1060936,2.98781 c 0.12045,-0.0812 0.18416,-0.19155 0.18416,-0.31915 0,-0.28382 -0.33181,-0.47293 -0.55991,-0.31916 -0.12045,0.0812 -0.18416,0.19157 -0.18416,0.31916 0,0.28383 0.33181,0.47292 0.55991,0.31915 z" />
					<path id="wqph02" d="m 10.706094,3.44781 c 0.12045,-0.0812 0.18416,-0.19155 0.18416,-0.31915 0,-0.12759 -0.0637,-0.23794 -0.18416,-0.31916 -0.2281,-0.15377 -0.5599,0.0353 -0.5599,0.31916 0,0.28383 0.3318,0.47292 0.5599,0.31915 z" />
					<path id="wqph03" d="m 5.4960936,3.44781 c 0.2474,-0.16671 0.2474,-0.47159 0,-0.63831 -0.22811,-0.15377 -0.55991,0.0353 -0.55991,0.31916 0,0.28383 0.3318,0.47292 0.55991,0.31915 z" />
					<path id="wqph04" d="m 13.026094,4.36781 c 0.12044,-0.0605 0.18648,-0.1737 0.18648,-0.31949 0,-0.21461 -0.15044,-0.36043 -0.37203,-0.36043 -0.22159,0 -0.37203,0.14582 -0.37203,0.36043 0,0.21439 0.15044,0.36018 0.37203,0.36018 0.0577,0 0.14114,-0.0181 0.18555,-0.0407 z" />
					<path id="wqph05" d="m 3.1660936,4.36781 c 0.25161,-0.12626 0.25161,-0.51294 0,-0.6392 -0.10352,-0.0521 -0.26758,-0.0521 -0.3711,0 -0.25161,0.12626 -0.25161,0.51294 0,0.6392 0.0445,0.0225 0.128,0.0407 0.18555,0.0407 0.0576,0 0.14105,-0.0181 0.18555,-0.0407 z" />
					<path id="wqph06" d="m 7.4260936,7.62781 c 0.0842,-0.046 0.2002,-0.12277 0.25763,-0.17067 0.20857,-0.17369 0.26345,-0.17579 0.44481,-0.0172 0.10348,0.0907 0.43249,0.28693 0.44877,0.26787 0.0109,-0.0128 -0.6478,-3.7866 -0.66106,-3.7866 -0.007,0 -0.15695,0.83963 -0.33482,1.866 -0.17765,1.0263 -0.32786,1.879 -0.33367,1.895 -0.0165,0.0446 0.0128,0.0358 0.17834,-0.0544 z" />
					<path id="wqph07" d="m 10.576094,7.78781 c -0.008,-0.0865 -0.0553,-0.9052 -0.10603,-1.8195 -0.0507,-0.9145 -0.0949,-1.6902 -0.0981,-1.7241 -0.003,-0.0356 -0.26367,0.68709 -0.6196604,1.7206 -0.33762,0.9803 -0.61944,1.7969 -0.62595,1.815 -0.02,0.0544 0.30181,0.0114 0.52992,-0.0709 0.29088,-0.10487 0.33343,-0.10766 0.4366704,-0.0284 0.0865,0.066 0.44202,0.26205 0.47806,0.26345 0.0105,2.3e-4 0.0126,-0.07 0.005,-0.15626 z" />
					<path id="wqph08" d="m 5.4360936,7.85781 c 0.0925,-0.0465 0.2181,-0.12068 0.27925,-0.16532 0.13045,-0.0951 0.15975,-0.0942 0.45923,0.0137 0.2281,0.0823 0.54991,0.12533 0.52991,0.0709 -0.007,-0.0181 -0.28832,-0.83475 -0.62594,-1.815 -0.35599,-1.0336 -0.61641,-1.7562 -0.61967,-1.7206 -0.003,0.034 -0.0474,0.80963 -0.0981,1.7241 -0.0507,0.91427 -0.0983,1.733 -0.10603,1.8195 -0.007,0.0863 -0.008,0.15695 -2.3e-4,0.15695 0.008,0 0.0893,-0.0379 0.1816,-0.0842 z" />
					<path id="wqph09" d="m 12.286094,6.79781 c 0.10231,-0.81731 0.183,-1.4888 0.17928,-1.4926 -0.006,-0.006 -1.3002,2.6444 -1.3356,2.7344 -0.0107,0.0277 0.0251,0.0298 0.2295,0.0137 0.41226,-0.0321 0.38901,-0.0365 0.56898,0.10951 0.0888,0.0721 0.16369,0.12859 0.16648,0.1258 0.003,-0.003 0.0891,-0.67385 0.19136,-1.4909 z" />
					<path id="wqph10" d="m 4.0660936,8.04781 c 0.0462,-0.0242 0.0927,-0.0253 0.2192,-0.006 0.22561,0.0351 0.42721,0.033 0.41256,-0.004 -0.0344,-0.0884 -1.3282,-2.7365 -1.3338,-2.7307 -0.004,0.004 0.0764,0.67059 0.1782,1.4821 0.10175,0.81126 0.18513,1.4837 0.18529,1.4942 1.7e-4,0.0105 0.0632,-0.0314 0.14014,-0.093 0.0769,-0.0616 0.16623,-0.12579 0.19846,-0.14277 z" />
					<path id="wqph11" d="m 4.6860936,9.44781 c 2.0964,-0.72104 4.3644,-0.72081 6.4610004,2.3e-4 0.0953,0.0328 0.18066,0.0516 0.18973,0.0419 0.0565,-0.0598 0.62432,-0.76383 0.62385,-0.77313 -4.6e-4,-0.007 -0.0751,-0.07 -0.16601,-0.14137 l -0.16533,-0.12952 -0.12998,0.0214 c -0.40319,0.0663 -0.99634,-0.0639 -1.4272,-0.31344 l -0.1578804,-0.0914 -0.17928,0.0588 c -0.58525,0.19206 -1.1728,0.11067 -1.6965,-0.23531 l -0.12208,-0.0807 -0.12207,0.0807 c -0.29646,0.19578 -0.63803,0.31227 -0.98356,0.33506 -0.24066,0.0158 -0.45016,-0.0135 -0.7129,-0.0998 l -0.17928,-0.0588 -0.15788,0.0914 c -0.43086,0.24949 -1.024,0.3797 -1.4272,0.31344 l -0.13,-0.0214 -0.16525,0.12952 c -0.0909,0.0714 -0.16319,0.13695 -0.16065,0.14602 0.004,0.0142 0.62566,0.78592 0.6331,0.78592 0.002,0 0.0805,-0.0267 0.17532,-0.0595 z" />
					<path id="wqph12" d="m 5.5660936,10.34781 c 1.5388,-0.49806 3.1488,-0.49806 4.6876004,0 0.19578,0.0632 0.40156,0.13463 0.45736,0.15858 0.0737,0.0316 0.10487,0.036 0.11324,0.0163 0.006,-0.0151 0.0739,-0.16997 0.14998,-0.34436 l 0.13834,-0.31669 -0.0842,-0.027 C 9.4712136,9.33658 8.1038136,9.208 6.5728136,9.41564 c -0.57734,0.0781 -1.1008,0.20136 -1.7816,0.419 l -0.0842,0.027 0.13835,0.31669 c 0.076,0.17439 0.1437,0.32925 0.14998,0.34436 0.008,0.0198 0.0395,0.0154 0.11324,-0.0163 0.0558,-0.0239 0.26158,-0.0953 0.45736,-0.15858 z" />
					<path id="wqph13" d="m 5.5760936,11.30781 c 0.45457,-0.11231 0.95007,-0.19927 1.4067,-0.2474 0.37878,-0.0398 1.4814,-0.0398 1.8602,0 0.63525,0.0667 1.5304004,0.25019 1.9939004,0.40831 0.0928,0.0316 0.16858,0.0535 0.16858,0.0481 0,-0.005 -0.0509,-0.12742 -0.11324,-0.27182 -0.13463,-0.31227 -0.11323,-0.29716 -0.7057,-0.49364 -0.4034204,-0.13393 -0.8666004,-0.2381 -1.3668004,-0.30762 -0.40761,-0.0565 -1.406,-0.0565 -1.8136,0 -0.50015,0.0695 -0.96333,0.17369 -1.3668,0.30762 -0.59246,0.19648 -0.57107,0.18137 -0.70569,0.49364 -0.0623,0.1444 -0.11324,0.2667 -0.11324,0.27182 0,0.005 0.0758,-0.0165 0.16857,-0.0481 0.0928,-0.0316 0.35692,-0.10394 0.58712,-0.16091 z" />
					<path id="wqph14" d="m 9.8860936,12.16781 c 0.3222804,-0.0467 0.5231704,-0.0935 0.7875504,-0.18369 l 0.21764,-0.0742 -0.15951,-0.0542 c -0.26042,-0.0881 -0.8786904,-0.23345 -1.2526004,-0.29437 -0.57897,-0.0944 -0.89357,-0.11812 -1.5695,-0.11812 -0.67593,0 -0.99053,0.0237 -1.5695,0.11812 -0.37389,0.0609 -0.99216,0.20625 -1.2526,0.29437 l -0.15951,0.0542 0.21764,0.0746 c 0.35227,0.12068 0.77801,0.19718 1.2293,0.22089 0.0702,0.004 0.83428,0.005 1.6974,0.002 1.2633,-0.003 1.6172,-0.0114 1.8136,-0.0398 z" />
				</g>
			</g>
		</g>
		<g id="white-king-template">
			<rect id="white-king-border" x=".25209" y="4.6533e-6" width="15.595" height="15.595" style="fill:none;stroke-linecap:round;stroke-linejoin:round;stroke-width:.25219;stroke:#000"/>
			<g id="white-king-piece" style="stroke-width:.023252">
				<path id="white-king-piece-background" d="m6.8921 12.56c-0.87938-0.0553-1.6844-0.25531-2.2915-0.56967-0.17004-0.0879-0.2248-0.12835-0.24189-0.17811-0.0156-0.0453-5e-3 -0.20299 0.035-0.53479l0.0571-0.47038-0.11031-1.2324-0.13997-0.24414c-0.19269-0.33622-0.42316-0.67732-0.6993-1.0347-0.39365-0.50968-0.52554-0.73011-0.6331-1.058-0.0557-0.16974-0.0651-0.23717-0.0666-0.47666-1e-3 -0.23089 8e-3 -0.30902 0.0527-0.45341 0.16727-0.53549 0.52861-0.9303 1.0117-1.1058 0.45432-0.16486 0.88145-0.1637 1.4142 4e-3 0.51759 0.16276 1.1654 0.55548 1.6386 0.99354l0.13765 0.12742-0.0514-0.20368c-0.10626-0.42132-0.12603-0.74359-0.0642-1.0426 0.0686-0.33204 0.22764-0.62896 0.43295-0.8073 0.097-0.0842 0.39389-0.24391 0.45364-0.24391 0.023 0 0.0298-0.0921 0.0298-0.40696v-0.4069h-0.76731v-0.34878h0.76731v-0.51154h0.34877v0.51154h0.74406v0.34878h-0.74406v0.80223l0.16858 0.0758c0.37923 0.17067 0.62501 0.50573 0.72452 0.98704 0.0616 0.29902 0.0419 0.62129-0.0644 1.0426l-0.0514 0.20368 0.13765-0.12742c0.34343-0.31785 0.80335-0.63012 1.2126-0.82311 0.55641-0.26228 1.0814-0.35389 1.5158-0.26414 0.399 0.0825 0.64989 0.21276 0.91403 0.47504 0.38086 0.37807 0.55874 0.95123 0.45457 1.4656-0.0765 0.37854-0.23345 0.66594-0.67895 1.2433-0.27646 0.35831-0.50735 0.69964-0.69965 1.0347l-0.1402 0.24414-0.11022 1.2324 0.057 0.47038c0.0402 0.3318 0.0505 0.48945 0.0349 0.53479-0.017 0.0498-0.0719 0.0902-0.24182 0.17811-0.62664 0.32436-1.3979 0.512-2.3494 0.5713-0.44039 0.0274-1.7504 0.0265-2.1973-2e-3z"/>
				<g id="white-king-piece-highlights" style="fill:#fff">
					<path id="wkph1" d="m8.0421 7.8c7e-3 -0.0223 0.0977-0.2867 0.20229-0.58711 0.39412-1.134 0.43132-1.2698 0.4569-1.6634 0.0258-0.4011-0.0512-0.67779-0.25252-0.90636-0.11672-0.13276-0.28995-0.21996-0.43643-0.21996-0.14672 0-0.31971 0.0872-0.43667 0.21996-0.20113 0.22857-0.27832 0.50526-0.25228 0.90636 0.0253 0.39365 0.0625 0.52944 0.4569 1.6634 0.1044 0.30041 0.19531 0.56478 0.20205 0.58711 7e-3 0.0223 0.02 0.0407 0.03 0.0407s0.0233-0.0184 0.0298-0.0407z"/>
					<path id="wkph2" d="m11.502 9.09c0.15044-0.27274 0.46178-0.73173 0.74801-1.1028 0.43481-0.56385 0.54967-0.79474 0.572-1.1498 0.0246-0.39295-0.0921-0.71011-0.35901-0.97611-0.27786-0.27669-0.60129-0.38923-1.0521-0.36575-0.42133 0.0221-0.79614 0.15114-1.2758 0.43993-0.77754 0.46806-1.4795 1.2805-1.6697 1.9329-0.046 0.15741-0.14881 0.62384-0.20136 0.91216l-0.013 0.0728 0.30692 0.0153c0.89287 0.0449 2.0392 0.20717 2.6321 0.37249 0.19695 0.0549 0.19881 0.054 0.31204-0.15114z"/>
					<path id="wkph3" d="m5.0721 9.19c0.68035-0.15555 1.4667-0.26437 2.2205-0.30739 0.26205-0.0149 0.47899-0.0288 0.48178-0.0312 0.0119-0.01-0.15881-0.80637-0.20996-0.98076-0.19183-0.65408-0.89287-1.4651-1.6702-1.9329-0.47968-0.28879-0.85427-0.41784-1.2756-0.43993-0.45097-0.0235-0.77456 0.0891-1.0522 0.36575-0.26727 0.26624-0.3843 0.58455-0.35845 0.97495 0.0239 0.36087 0.14384 0.5999 0.5893 1.1744 0.27167 0.3504 0.5809 0.80823 0.72931 1.0796 0.11998 0.21926 0.0602 0.20857 0.54549 0.0974z"/>
					<path id="wkph4" d="m5.8021 10.27c1.6716-0.3718 3.4401-0.31297 5.0889 0.16904l0.30111 0.0879 0.0284-0.34971c0.0153-0.19252 0.0337-0.38226 0.0405-0.42155l0.0121-0.0714-0.33319-0.0756c-1.9069-0.43272-3.9444-0.43272-5.8513 0l-0.3332 0.0756 0.0123 0.0714c7e-3 0.0393 0.0249 0.22903 0.0405 0.42155l0.0281 0.34971 0.30111-0.0879c0.16578-0.0486 0.4648-0.12463 0.66476-0.16904z"/>
					<path id="wkph5" d="m5.7221 11.12c0.85404-0.22135 1.3895-0.28902 2.2903-0.28902 0.4927 0 0.74894 0.0107 0.99982 0.0414 0.64245 0.0786 1.3581 0.24136 1.936 0.43993 0.23042 0.0793 0.29436 0.0939 0.28599 0.0656-6e-3 -0.0202-0.0179-0.11254-0.0265-0.20508-9e-3 -0.0923-0.0274-0.18346-0.0419-0.20229-0.0321-0.0423-0.55013-0.19485-0.98331-0.28949-1.6323-0.35691-3.3899-0.29948-4.9798 0.16276-0.17485 0.0507-0.32947 0.10789-0.34389 0.12673-0.0142 0.0188-0.033 0.10998-0.0418 0.20229-9e-3 0.0925-0.0205 0.18485-0.0265 0.20508-8e-3 0.0284 0.0556 0.0137 0.286-0.0656 0.16322-0.056 0.45387-0.14254 0.6457-0.1923z"/>
					<path id="wkph6" d="m9.0821 12.14c0.45108-0.0281 0.91914-0.0928 1.244-0.17159 0.28972-0.0705 0.64942-0.19927 0.62361-0.22322-0.0277-0.026-0.49154-0.17206-0.76312-0.24042-0.76522-0.19206-1.3174-0.25763-2.174-0.25763-0.85683 0-1.4091 0.0656-2.174 0.25763-0.27182 0.0684-0.73569 0.21438-0.76336 0.24042-0.0256 0.024 0.3339 0.15253 0.62385 0.22322 0.3039 0.0739 0.80776 0.14625 1.1858 0.16997 0.4469 0.0281 1.7569 0.0291 2.1973 2e-3z"/>
				</g>
			</g>
		</g>
    </defs>
    <title id="svg-title">chess board</title>
    <metadata id="svg-metadata"><rdf:RDF>
        <cc:Work rdf:about="">
            <cc:license rdf:resource="http://creativecommons.org/publicdomain/zero/1.0/" />
            <dc:creator><cc:Agent><dc:title>Schachbrett und Schachfiguren</dc:title></cc:Agent></dc:creator>
            <dc:format>image/svg+xml</dc:format>
            <dc:rights><cc:Agent><dc:title>CC0</dc:title></cc:Agent></dc:rights>
            <dc:title>Chessboard and chess pieces</dc:title>
            <dc:type rdf:resource="http://purl.org/dc/dcmitype/StillImage" />
        </cc:Work>
        <cc:License rdf:about="https://creativecommons.org/licenses/by-sa/3.0/deed.en">
            <cc:permits rdf:resource="http://creativecommons.org/ns#DerivativeWorks" />
            <cc:permits rdf:resource="http://creativecommons.org/ns#Distribution" />
            <cc:permits rdf:resource="http://creativecommons.org/ns#Reproduction" />
        </cc:License>
    </rdf:RDF></metadata>
    <g id="chess-board" style="stroke:#000">
		<use id="outside-border" x="0.419" y="0.419" width="100%" height="100%" xlink:href="#outside-border-template" />
		<use id="board-border" x="13.124" y="13.123" width="100%" height="100%" xlink:href="#board-border-template" />
        <g id="dark-squares" style="fill:#803300;stroke-linecap:round;stroke-linejoin:round;stroke-width:.2522">
            <rect id="g1" x="106.700" y="122.300" width="15.595" height="15.595" />
            <rect id="e1" x="75.501" y="122.300" width="15.595" height="15.595" />
            <rect id="c1" x="44.314" y="122.300" width="15.595" height="15.595" />
            <rect id="a1" x="13.130" y="122.300" width="15.595" height="15.595" />
            <rect id="h2" x="122.300" y="106.700" width="15.595" height="15.595" />
            <rect id="f2" x="91.101" y="106.700" width="15.595" height="15.595" />
            <rect id="d2" x="59.911" y="106.700" width="15.595" height="15.595" />
            <rect id="b2" x="28.730" y="106.700" width="15.595" height="15.595" />
            <rect id="g3" x="106.700" y="91.103" width="15.595" height="15.595" />
            <rect id="e3" x="75.501" y="91.103" width="15.595" height="15.595" />
            <rect id="c3" x="44.314" y="91.103" width="15.595" height="15.595" />
            <rect id="a3" x="13.130" y="91.103" width="15.595" height="15.595" />
            <rect id="h4" x="122.300" y="75.503" width="15.595" height="15.595" />
            <rect id="f4" x="91.101" y="75.503" width="15.595" height="15.595" />
            <rect id="d4" x="59.911" y="75.503" width="15.595" height="15.595" />
            <rect id="b4" x="28.730" y="75.503" width="15.595" height="15.595" />
            <rect id="g5" x="106.700" y="59.909" width="15.595" height="15.595" />
            <rect id="e5" x="75.501" y="59.909" width="15.595" height="15.595" />
            <rect id="c5" x="44.314" y="59.909" width="15.595" height="15.595" />
            <rect id="a5" x="13.130" y="59.909" width="15.595" height="15.595" />
            <rect id="h6" x="122.300" y="44.314" width="15.595" height="15.595" />
            <rect id="f6" x="91.101" y="44.314" width="15.595" height="15.595" />
            <rect id="d6" x="59.911" y="44.314" width="15.595" height="15.595" />
            <rect id="b6" x="28.730" y="44.314" width="15.595" height="15.595" />
            <rect id="g7" x="106.700" y="28.730" width="15.595" height="15.595" />
            <rect id="e7" x="75.501" y="28.730" width="15.595" height="15.595" />
            <rect id="c7" x="44.314" y="28.730" width="15.595" height="15.595" />
            <rect id="a7" x="13.130" y="28.730" width="15.595" height="15.595" />
            <rect id="h8" x="122.300" y="13.130" width="15.595" height="15.595" />
            <rect id="f8" x="91.101" y="13.130" width="15.595" height="15.595" />
            <rect id="d8" x="59.911" y="13.130" width="15.595" height="15.595" />
            <rect id="b8" x="28.730" y="13.130" width="15.595" height="15.595" />
        </g>
    </g>
    <g id="axis-labels" style="font-feature-settings:normal;font-variant-caps:normal;font-variant-ligatures:normal;font-variant-numeric:normal;stroke-width:.61754">
        <g id="left-numbers">
            <use id="left-1" x="4.507" y="134.46" width="100%" height="100%" xlink:href="#1-template" />
            <use id="left-2" x="4.377" y="118.92" width="100%" height="100%" xlink:href="#2-template" />
            <use id="left-3" x="9.353" y="101.24" width="100%" height="100%" xlink:href="#3-template" />
            <use id="left-4" x="8.477" y="86.013" width="100%" height="100%" xlink:href="#4-template" />
            <use id="left-5" x="9.352" y="69.633" width="100%" height="100%" xlink:href="#5-template" />
            <use id="left-6" x="9.284" y="54.082" width="100%" height="100%" xlink:href="#6-template" />
            <use id="left-7" x="9.248" y="34.295" width="100%" height="100%" xlink:href="#7-template" />
            <use id="left-8" x="9.327" y="23.243" width="100%" height="100%" xlink:href="#8-template" />
        </g>
        <g id="bottom-letters">
            <use id="bottom-h" x="127.85" y="142.44" width="100%" height="100%" xlink:href="#h-template" />
            <use id="bottom-g" x="113.46" y="149.35" width="100%" height="100%" xlink:href="#g-template" />
            <use id="bottom-f" x="99.041" y="142.16" width="100%" height="100%" xlink:href="#f-template" />
            <use id="bottom-e" x="80.851" y="144.5" width="100%" height="100%" xlink:href="#e-template" />
            <use id="bottom-d" x="68.101" y="146.22" width="100%" height="100%" xlink:href="#d-template" />
            <use id="bottom-c" x="49.649" y="144.28" width="100%" height="100%" xlink:href="#c-template" />
            <use id="bottom-b" x="38.121" y="144.28" width="100%" height="100%" xlink:href="#b-template" />
            <use id="bottom-a" x="19.186" y="147.24" width="100%" height="100%" xlink:href="#a-template" />
        </g>
        <g id="right-numbers">
            <use id="right-1" x="141.89" y="134.46" width="100%" height="100%" xlink:href="#1-template" />
            <use id="right-2" x="141.76" y="118.92" width="100%" height="100%" xlink:href="#2-template" />
            <use id="right-3" x="146.73" y="101.24" width="100%" height="100%" xlink:href="#3-template" />
            <use id="right-4" x="145.85" y="86.013" width="100%" height="100%" xlink:href="#4-template" />
            <use id="right-5" x="146.73" y="69.633" width="100%" height="100%" xlink:href="#5-template" />
            <use id="right-6" x="146.66" y="54.082" width="100%" height="100%" xlink:href="#6-template" />
            <use id="right-7" x="146.63" y="34.295" width="100%" height="100%" xlink:href="#7-template" />
            <use id="right-8" x="146.71" y="23.243" width="100%" height="100%" xlink:href="#8-template" />
        </g>
        <g id="top-letters">
            <use id="top-h" x="128" y="5.317" width="100%" height="100%" xlink:href="#h-template" />
            <use id="top-g" x="113.61" y="12.226" width="100%" height="100%" xlink:href="#g-template" />
            <use id="top-f" x="99.041" y="5.035" width="100%" height="100%" xlink:href="#f-template" />
            <use id="top-e" x="81.001" y="7.376" width="100%" height="100%" xlink:href="#e-template" />
            <use id="top-d" x="68.251" y="9.096" width="100%" height="100%" xlink:href="#d-template" />
            <use id="top-c" x="49.806" y="7.151" width="100%" height="100%" xlink:href="#c-template" />
            <use id="top-b" x="38.278" y="7.151" width="100%" height="100%" xlink:href="#b-template" />
            <use id="top-a" x="19.343" y="10.11" width="100%" height="100%" xlink:href="#a-template" />
        </g>
    </g>
    <g id="chess-pieces">
        <g id="white-pieces">
            <g id="white-back-rank">
                <use id="white-king-rook" x="122.300" y="122.300" width="100%" height="100%" xlink:href="#white-rook-template" />
                <use id="white-king-knight" x="106.7" y="122.300" width="100%" height="100%" xlink:href="#white-knight-template" />
                <use id="white-king-bishop" x="91.101" y="122.300" width="100%" height="100%" xlink:href="#white-bishop-template" />
                <use id="white-king" x="75.501" y="122.300" width="100%" height="100%" xlink:href="#white-king-template" />
                <use id="white-queen" x="59.921" y="122.300" width="100%" height="100%" xlink:href="#white-queen-template" />
                <use id="white-queen-bishop" x="44.32" y="122.300" width="100%" height="100%" xlink:href="#white-bishop-template" />
                <use id="white-queen-knight" x="28.730" y="122.300" width="100%" height="100%" xlink:href="#white-knight-template" />
                <use id="white-queen-rook" x="13.130" y="122.300" width="100%" height="100%" xlink:href="#white-rook-template" />
            </g>
            <g id="white-pawns">
                <use id="white-king-rook-pawn" x="122.300" y="106.7" width="100%" height="100%" xlink:href="#white-pawn-template" />
                <use id="white-king-knight-pawn" x="106.7" y="106.7" width="100%" height="100%" xlink:href="#white-pawn-template" />
                <use id="white-king-bishop-pawn" x="91.110001" y="106.7" width="100%" height="100%" xlink:href="#white-pawn-template" />
                <use id="white-king-pawn" x="75.510002" y="106.7" width="100%" height="100%" xlink:href="#white-pawn-template" />
                <use id="white-queen-pawn" x="59.919998" y="106.7" width="100%" height="100%" xlink:href="#white-pawn-template" />
                <use id="white-queen-bishop-pawn" x="44.32" y="106.7" width="100%" height="100%" xlink:href="#white-pawn-template" />
                <use id="white-queen-knight-pawn" x="28.73" y="106.7" width="100%" height="100%" xlink:href="#white-pawn-template" />
                <use id="white-queen-rook-pawn" x="13.13" y="106.7" width="100%" height="100%" xlink:href="#white-pawn-template" />
            </g>
        </g>
        <g id="black-pieces">
            <g id="black-pawns" style="stroke:#000">
                <use id="black-king-rook-pawn" x="122.300" y="28.730" width="100%" height="100%" xlink:href="#black-pawn-template" />
                <use id="black-king-knight-pawn" x="106.7" y="28.730" width="100%" height="100%" xlink:href="#black-pawn-template" />
                <use id="black-king-bishop-pawn" x="91.110001" y="28.730" width="100%" height="100%" xlink:href="#black-pawn-template" />
                <use id="black-king-pawn" x="75.510002" y="28.730" width="100%" height="100%" xlink:href="#black-pawn-template" />
                <use id="black-queen-pawn" x="59.919998" y="28.730" width="100%" height="100%" xlink:href="#black-pawn-template" />
                <use id="black-queen-bishop-pawn" x="44.32" y="28.730" width="100%" height="100%" xlink:href="#black-pawn-template" />
                <use id="black-queen-knight-pawn" x="28.73" y="28.730" width="100%" height="100%" xlink:href="#black-pawn-template" />
                <use id="black-queen-rook-pawn" x="13.13" y="28.730" width="100%" height="100%" xlink:href="#black-pawn-template" />
            </g>
            <g id="black-back-rank">
                <use id="black-king-rook" x="122.300" y="13.130" width="100%" height="100%" xlink:href="#black-rook-template" />
                <use id="black-king-knight" x="106.7" y="13.130" width="100%" height="100%" xlink:href="#black-knight-template" />
                <use id="black-king-bishop" x="91.111" y="13.130" width="100%" height="100%" xlink:href="#black-bishop-template" />
                <use id="black-king" x="75.511" y="13.130" width="100%" height="100%" xlink:href="#black-king-template" />
                <use id="black-queen" x="59.911" y="13.130" width="100%" height="100%" xlink:href="#black-queen-template" />
                <use id="black-queen-bishop" x="44.318" y="13.130" width="100%" height="100%" xlink:href="#black-bishop-template" />
                <use id="black-queen-knight" x="28.730" y="13.130" width="100%" height="100%" xlink:href="#black-knight-template" />
                <use id="black-queen-rook" x="13.13" y="13.130" width="100%" height="100%" xlink:href="#black-rook-template" />
            </g>
        </g>
    </g>
</svg>