<?xml version="1.0" standalone="no"?>
<!DOCTYPE svg PUBLIC "-//W3C//DTD SVG 20010904//EN"
 "http://www.w3.org/TR/2001/REC-SVG-20010904/DTD/svg10.dtd">
<svg version="1.0" xmlns="http://www.w3.org/2000/svg"
 width="125.000000pt" height="120.000000pt" viewBox="0 0 125.000000 120.000000"
 preserveAspectRatio="xMidYMid meet">

<g transform="translate(0.000000,120.000000) scale(0.100000,-0.100000)"
fill="#000000" stroke="none">
<path d="M529 1105 c-64 -20 -131 -83 -159 -146 -28 -67 -25 -163 7 -226 l22
-43 -58 6 c-252 27 -392 -287 -204 -457 132 -119 349 -75 419 86 13 29 13 27
13 -35 1 -78 -21 -131 -78 -193 -23 -24 -41 -47 -41 -51 0 -3 75 -6 166 -6
l166 0 -35 39 c-66 74 -90 125 -94 210 l-4 76 23 -43 c68 -126 199 -181 329
-137 62 21 109 63 144 126 24 45 29 66 29 124 0 60 -4 79 -30 125 -53 94 -155
148 -262 137 -29 -3 -52 -3 -50 1 48 90 58 196 24 262 -66 128 -198 186 -327
145z"/>
</g>
</svg>
