<?xml version="1.0" standalone="no"?>
<!DOCTYPE svg PUBLIC "-//W3C//DTD SVG 20010904//EN"
 "http://www.w3.org/TR/2001/REC-SVG-20010904/DTD/svg10.dtd">
<svg version="1.0" xmlns="http://www.w3.org/2000/svg"
 width="127.000000pt" height="127.000000pt" viewBox="0 0 127.000000 127.000000"
 preserveAspectRatio="xMidYMid meet">

<g transform="translate(0.000000,127.000000) scale(0.100000,-0.100000)"
fill="#000000" stroke="none">
<path d="M599 1148 c-100 -170 -217 -330 -333 -455 l-58 -63 67 -72 c94 -103
233 -290 306 -413 34 -58 62 -105 63 -105 1 0 33 51 70 114 82 138 198 294
296 399 l73 78 -60 62 c-115 121 -286 355 -349 480 -13 26 -26 47 -28 47 -2 0
-23 -33 -47 -72z"/>
</g>
</svg>
