<?xml version="1.0" standalone="no"?>
<!DOCTYPE svg PUBLIC "-//W3C//DTD SVG 20010904//EN"
 "http://www.w3.org/TR/2001/REC-SVG-20010904/DTD/svg10.dtd">
<svg version="1.0" xmlns="http://www.w3.org/2000/svg"
 width="124.000000pt" height="124.000000pt" viewBox="0 0 124.000000 124.000000"
 preserveAspectRatio="xMidYMid meet">

<g transform="translate(0.000000,124.000000) scale(0.100000,-0.100000)"
fill="#000000" stroke="none">
<path d="M231 1039 c-88 -44 -132 -109 -150 -218 -13 -81 2 -169 40 -242 36
-67 151 -184 299 -302 58 -46 126 -107 152 -135 l46 -52 27 35 c14 19 104 100
200 180 251 209 310 296 310 455 0 103 -25 171 -84 230 -118 118 -326 107
-421 -23 -30 -41 -36 -45 -45 -31 -76 128 -235 172 -374 103z"/>
</g>
</svg>
