<?xml version="1.0" standalone="no"?>
<!DOCTYPE svg PUBLIC "-//W3C//DTD SVG 20010904//EN"
 "http://www.w3.org/TR/2001/REC-SVG-20010904/DTD/svg10.dtd">
<svg version="1.0" xmlns="http://www.w3.org/2000/svg"
 width="131.000000pt" height="132.000000pt" viewBox="0 0 131.000000 132.000000"
 preserveAspectRatio="xMidYMid meet">

<g transform="translate(0.000000,132.000000) scale(0.100000,-0.100000)"
fill="#000000" stroke="none">
<path d="M600 1173 c-62 -83 -202 -224 -305 -307 -179 -144 -210 -188 -210
-306 0 -58 5 -84 23 -117 52 -98 136 -157 243 -169 69 -8 148 13 206 55 l41
30 -14 -60 c-17 -72 -53 -146 -95 -194 l-31 -35 181 0 c100 0 181 3 181 6 0 4
-14 22 -30 41 -40 45 -75 117 -89 181 -14 69 -15 69 12 45 76 -70 214 -90 312
-45 111 51 175 148 175 267 0 115 -29 154 -247 333 -94 77 -175 160 -267 275
-21 26 -41 47 -45 47 -3 0 -22 -22 -41 -47z"/>
</g>
</svg>
